<?xml version="1.0" encoding="utf-8"?>
<!-- Generator: Adobe Illustrator 25.0.1, SVG Export Plug-In . SVG Version: 6.00 Build 0)  -->
<svg version="1.1" id="Calque_1" xmlns="http://www.w3.org/2000/svg" xmlns:xlink="http://www.w3.org/1999/xlink" x="0px" y="0px"
	 viewBox="0 0 210 67.49" style="enable-background:new 0 0 210 67.49;" xml:space="preserve">
<style type="text/css">
	.st0{fill:#E6AA32;}
</style>
<g>
	<g>
		<g>
			<path class="st0" d="M21.56,37.92H4.68c0,0-0.2-0.01-0.29,0.69h17.16C21.56,38.38,21.56,38.15,21.56,37.92z"/>
			<path class="st0" d="M21.55,39.29c0-0.14,0-0.27,0-0.41H4.37c-0.01,0.16-0.02,0.34-0.02,0.55c0,0.1,0,0.2,0.01,0.29h17.2
				C21.55,39.58,21.55,39.44,21.55,39.29z"/>
			<path class="st0" d="M4.45,40.6c0.09,0.42,0.23,0.47,0.23,0.47h16.89c0-0.16-0.01-0.31-0.01-0.47H4.45z"/>
			<path class="st0" d="M25.46,26.13h-0.91c-0.43,0-0.98,0.29-1.15,0.69c-0.5,1.19-1.35,4.21-1.44,11.1
				c-0.01,0.44-0.01,0.89-0.01,1.36c0,0.62,0.01,1.22,0.02,1.78c0.13,6.76,0.98,9.86,1.46,11.09c0.16,0.4,0.69,0.7,1.12,0.7h0.93
				c-0.44-1.92-1.06-5.72-1.06-13.37C24.41,32.01,25.02,28.11,25.46,26.13z M22.76,32.44c-0.01,0.09-0.01,0.18-0.02,0.27
				c-0.01,0.24-0.03,0.5-0.04,0.77c0,0.08-0.01,0.17-0.01,0.26c-0.03,0.48-0.05,0.98-0.08,1.49c-0.02,0.2-0.03,0.4-0.04,0.6
				l-0.02,0.31c-0.01,0.19-0.02,0.39-0.03,0.58c-0.01,0.19-0.02,0.37-0.03,0.54c-0.02,0.24-0.03,0.46-0.04,0.67
				c0,0.03,0,0.06,0,0.09c0,0.09-0.01,0.18-0.01,0.27c-0.03,0.61-0.05,1-0.05,1s-0.03-0.51-0.05-1.27c0-0.03,0-0.06,0-0.1
				c0-0.36,0-0.77,0.02-1.21c0.02-0.48,0.02-0.99,0.05-1.49c0.04-0.51,0.07-1.02,0.11-1.49c0.03-0.48,0.09-0.92,0.14-1.3
				c0.1-0.76,0.18-1.26,0.18-1.26S22.81,31.68,22.76,32.44z M23.26,32.44c-0.01,0.09-0.01,0.18-0.02,0.27
				c-0.02,0.24-0.03,0.5-0.04,0.77c0,0.08-0.01,0.17-0.01,0.26c-0.03,0.48-0.05,0.98-0.08,1.49c-0.02,0.2-0.03,0.4-0.04,0.6
				l-0.02,0.31c-0.01,0.19-0.02,0.39-0.03,0.58c-0.01,0.19-0.02,0.37-0.03,0.54c-0.02,0.24-0.03,0.46-0.04,0.67
				c0,0.03,0,0.06,0,0.09c0,0.09-0.01,0.18-0.01,0.27c-0.03,0.61-0.05,1-0.05,1s-0.03-0.51-0.05-1.27c0-0.03,0-0.06,0-0.1
				c0-0.36,0-0.77,0.02-1.21c0.02-0.48,0.02-0.99,0.05-1.49c0.04-0.51,0.07-1.02,0.11-1.49c0.03-0.48,0.09-0.92,0.14-1.3
				c0.1-0.76,0.18-1.26,0.18-1.26S23.31,31.68,23.26,32.44z M23.77,32.44c-0.01,0.09-0.01,0.18-0.02,0.27
				c-0.02,0.24-0.03,0.5-0.04,0.77c0,0.08-0.01,0.17-0.01,0.26c-0.03,0.48-0.05,0.98-0.08,1.49c-0.02,0.2-0.03,0.4-0.04,0.6
				l-0.02,0.31c-0.01,0.19-0.02,0.39-0.03,0.58c-0.01,0.19-0.02,0.37-0.03,0.54c-0.02,0.27-0.04,0.53-0.04,0.76
				c0,0.09-0.01,0.18-0.01,0.27c-0.03,0.61-0.05,1-0.05,1s-0.03-0.51-0.05-1.27c-0.01-0.38,0-0.83,0.02-1.31
				c0.02-0.48,0.02-0.99,0.05-1.49c0.04-0.51,0.07-1.02,0.1-1.49c0.03-0.48,0.09-0.92,0.14-1.3c0.1-0.76,0.18-1.26,0.18-1.26
				S23.82,31.68,23.77,32.44z M24.28,32.44c-0.01,0.09-0.01,0.18-0.02,0.27c-0.01,0.24-0.03,0.5-0.04,0.77
				c0,0.08-0.01,0.17-0.01,0.26c-0.03,0.48-0.05,0.98-0.08,1.49c-0.01,0.2-0.03,0.4-0.04,0.6l-0.02,0.31
				c-0.01,0.19-0.02,0.39-0.03,0.58c-0.01,0.19-0.02,0.37-0.03,0.54c-0.02,0.27-0.04,0.53-0.05,0.76c0,0.09-0.01,0.18-0.01,0.27
				c-0.03,0.61-0.05,1-0.05,1s-0.03-0.51-0.05-1.27c-0.01-0.38,0-0.83,0.02-1.31c0.02-0.48,0.02-0.99,0.05-1.49
				c0.04-0.51,0.07-1.02,0.11-1.49c0.03-0.48,0.09-0.92,0.14-1.3c0.1-0.76,0.18-1.26,0.18-1.26S24.33,31.68,24.28,32.44z"/>
			<path class="st0" d="M29.89,24.28h-2.55c-0.43,0-1.05,0.2-1.17,0.62c-0.06,0.2-0.14,0.48-0.23,0.84
				c-0.02,0.06-0.03,0.13-0.05,0.19c-0.02,0.06-0.03,0.13-0.05,0.2c-0.44,1.92-1.05,5.79-1.05,13.37c0,7.75,0.63,11.5,1.07,13.37
				c0.02,0.07,0.03,0.13,0.05,0.19c0.02,0.07,0.03,0.13,0.05,0.2c0.09,0.34,0.17,0.61,0.22,0.81c0.12,0.41,0.71,0.65,1.15,0.65h2.57
				c-0.61-3.08-1.11-7.86-1.11-15.3C28.8,32.06,29.29,27.33,29.89,24.28z M25.77,30.33c-0.02,0.27-0.04,0.56-0.07,0.86
				c-0.02,0.3-0.06,0.6-0.08,0.92c-0.02,0.31-0.03,0.63-0.05,0.95c-0.04,0.63-0.09,1.27-0.11,1.86c-0.03,0.6-0.05,1.15-0.07,1.63
				c-0.04,0.75-0.08,1.29-0.09,1.5c0,0.06-0.01,0.09-0.01,0.09s-0.01-0.64-0.02-1.59c0-0.48,0.01-1.03,0.01-1.63
				c0.02-0.59,0.06-1.23,0.09-1.87c0.04-0.64,0.08-1.27,0.15-1.87c0.03-0.3,0.07-0.58,0.1-0.86c0.03-0.27,0.05-0.53,0.1-0.76
				c0.16-0.94,0.27-1.57,0.27-1.57s-0.05,0.64-0.16,1.59C25.8,29.8,25.8,30.05,25.77,30.33z M26.36,30.33
				c-0.02,0.27-0.04,0.56-0.07,0.86c-0.02,0.3-0.06,0.6-0.08,0.92c-0.02,0.31-0.03,0.63-0.05,0.95c-0.04,0.63-0.09,1.27-0.12,1.86
				c-0.03,0.6-0.05,1.15-0.07,1.63c-0.04,0.75-0.08,1.29-0.09,1.5c0,0.06-0.01,0.09-0.01,0.09s-0.01-0.64-0.02-1.59
				c0-0.48,0.01-1.03,0.01-1.63c0.02-0.59,0.06-1.23,0.09-1.87c0.03-0.64,0.08-1.27,0.15-1.87c0.03-0.3,0.06-0.58,0.09-0.86
				c0.03-0.27,0.05-0.53,0.1-0.76c0.15-0.94,0.27-1.57,0.27-1.57s-0.06,0.64-0.16,1.59C26.39,29.8,26.38,30.05,26.36,30.33z
				 M26.94,30.33c-0.02,0.27-0.04,0.56-0.07,0.86c-0.02,0.3-0.05,0.6-0.08,0.92c-0.02,0.31-0.03,0.63-0.05,0.95
				c-0.04,0.63-0.08,1.27-0.12,1.86c-0.03,0.6-0.05,1.15-0.07,1.63c-0.04,0.75-0.08,1.29-0.09,1.5c0,0.06-0.01,0.09-0.01,0.09
				s-0.01-0.64-0.02-1.59c0-0.48,0.01-1.03,0.01-1.63c0.02-0.59,0.06-1.23,0.09-1.87c0.03-0.64,0.08-1.27,0.15-1.87
				c0.03-0.3,0.06-0.58,0.1-0.86c0.03-0.27,0.05-0.53,0.1-0.76c0.15-0.94,0.27-1.57,0.27-1.57s-0.05,0.64-0.16,1.59
				C26.98,29.8,26.97,30.05,26.94,30.33z M27.53,30.33c-0.02,0.24-0.04,0.49-0.06,0.75c0,0.03-0.01,0.07-0.01,0.1
				c-0.02,0.3-0.06,0.6-0.08,0.92c-0.01,0.31-0.03,0.63-0.05,0.95c-0.04,0.63-0.08,1.27-0.12,1.86c-0.02,0.6-0.05,1.15-0.07,1.63
				c-0.04,0.75-0.07,1.29-0.09,1.5c0,0.06-0.01,0.09-0.01,0.09s-0.01-0.64-0.02-1.59c0-0.48,0.01-1.03,0.01-1.63
				c0.02-0.59,0.06-1.23,0.09-1.87c0.04-0.64,0.08-1.27,0.15-1.87c0.03-0.3,0.06-0.58,0.09-0.86c0.03-0.24,0.05-0.48,0.09-0.69
				c0-0.02,0.01-0.05,0.01-0.07c0.07-0.45,0.14-0.82,0.18-1.09c0.05-0.3,0.09-0.48,0.09-0.48s-0.03,0.34-0.09,0.88
				c-0.02,0.21-0.04,0.44-0.07,0.7C27.56,29.8,27.55,30.05,27.53,30.33z M28.11,30.33c-0.02,0.27-0.04,0.56-0.07,0.86
				c-0.02,0.3-0.05,0.6-0.07,0.92c-0.02,0.31-0.03,0.63-0.05,0.95c-0.02,0.33-0.04,0.65-0.06,0.97c-0.02,0.3-0.04,0.6-0.05,0.89
				c-0.03,0.6-0.05,1.15-0.07,1.63c-0.03,0.51-0.05,0.93-0.07,1.21c-0.01,0.13-0.01,0.22-0.02,0.29c0,0.06-0.01,0.09-0.01,0.09
				s-0.01-0.64-0.02-1.59c0-0.48,0.01-1.03,0.01-1.63c0.01-0.22,0.02-0.46,0.03-0.69c0.02-0.39,0.04-0.78,0.06-1.17
				c0.03-0.59,0.08-1.17,0.14-1.72c0-0.05,0.01-0.1,0.02-0.15c0.03-0.3,0.06-0.58,0.09-0.86c0.03-0.27,0.05-0.53,0.1-0.76
				c0.16-0.94,0.27-1.57,0.27-1.57s-0.06,0.64-0.16,1.59C28.15,29.8,28.14,30.05,28.11,30.33z M28.7,30.33
				c-0.02,0.27-0.04,0.56-0.07,0.86c-0.02,0.3-0.06,0.6-0.08,0.92c-0.02,0.31-0.03,0.63-0.05,0.95c-0.04,0.63-0.09,1.27-0.12,1.86
				c-0.03,0.6-0.05,1.15-0.07,1.63c-0.04,0.75-0.07,1.29-0.09,1.5c0,0.06,0,0.09,0,0.09s-0.01-0.64-0.02-1.59
				c0-0.48,0.01-1.03,0.01-1.63c0.02-0.59,0.06-1.23,0.09-1.87c0.04-0.64,0.08-1.27,0.15-1.87c0.03-0.3,0.07-0.58,0.1-0.86
				c0.03-0.27,0.05-0.53,0.1-0.76c0.16-0.94,0.27-1.57,0.27-1.57s-0.06,0.64-0.16,1.59C28.73,29.8,28.72,30.05,28.7,30.33z"/>
			<path class="st0" d="M37.03,19.26H33c-0.43,0-1.04,0.24-1.27,0.61c-0.37,0.61-0.89,1.8-1.36,4.03c-0.01,0.06-0.03,0.13-0.04,0.2
				c-0.01,0.06-0.03,0.13-0.04,0.2c-0.59,2.99-1.1,7.7-1.1,15.14c0,7.52,0.51,12.29,1.12,15.3c0.01,0.06,0.03,0.13,0.04,0.19
				c0.01,0.07,0.03,0.13,0.04,0.19c0.47,2.22,0.99,3.41,1.35,4.02c0.22,0.37,0.82,0.62,1.26,0.62h3.82
				c-0.7-2.87-1.38-8.45-1.38-19.31C35.44,28.42,36.24,22.34,37.03,19.26z M30.65,28.78c-0.03,0.22-0.03,0.47-0.05,0.7
				c-0.07,0.94-0.14,1.88-0.2,2.76c-0.03,0.44-0.07,0.87-0.08,1.27c-0.02,0.4-0.04,0.79-0.05,1.14c-0.07,1.42-0.14,2.36-0.14,2.36
				s-0.03-0.95-0.03-2.37c0-0.35,0-0.74,0-1.14c0-0.41,0-0.84,0.04-1.28c0.05-0.89,0.11-1.83,0.16-2.78
				c0.02-0.24,0.03-0.47,0.06-0.71c0.03-0.23,0.06-0.47,0.1-0.7c0.06-0.46,0.12-0.91,0.18-1.35c0.03-0.22,0.05-0.43,0.09-0.65
				c0.04-0.21,0.09-0.41,0.13-0.61c0.09-0.4,0.17-0.77,0.24-1.12c0-0.01,0.01-0.02,0.01-0.03c0.01-0.07,0.03-0.13,0.05-0.2
				c0.02-0.07,0.03-0.13,0.05-0.2c0.05-0.18,0.1-0.36,0.15-0.52c0.08-0.28,0.15-0.52,0.21-0.72c0.12-0.4,0.19-0.62,0.19-0.62
				s-0.05,0.23-0.13,0.64c-0.04,0.2-0.1,0.45-0.16,0.73c-0.03,0.15-0.07,0.32-0.1,0.49c-0.01,0.06-0.03,0.13-0.04,0.2
				c-0.01,0.06-0.03,0.13-0.04,0.2c0,0.02-0.01,0.04-0.01,0.06c-0.06,0.35-0.12,0.73-0.19,1.13c-0.03,0.2-0.07,0.41-0.1,0.62
				c-0.03,0.21-0.05,0.42-0.08,0.64c-0.05,0.44-0.11,0.9-0.16,1.36C30.7,28.32,30.67,28.55,30.65,28.78z M31.36,28.78
				c-0.03,0.22-0.03,0.47-0.05,0.7c-0.07,0.94-0.14,1.88-0.2,2.76c-0.04,0.44-0.07,0.87-0.08,1.27c-0.02,0.4-0.04,0.79-0.05,1.14
				c-0.07,1.42-0.14,2.36-0.14,2.36s-0.03-0.95-0.03-2.37c0-0.35,0-0.74,0-1.14c0-0.41,0-0.84,0.04-1.28
				c0.05-0.89,0.11-1.83,0.16-2.78c0.02-0.24,0.03-0.47,0.06-0.71c0.03-0.23,0.06-0.47,0.1-0.7c0.06-0.46,0.13-0.91,0.18-1.35
				c0.03-0.22,0.05-0.43,0.09-0.65c0.05-0.21,0.09-0.41,0.13-0.61c0.08-0.4,0.17-0.77,0.24-1.12c0-0.01,0-0.02,0.01-0.03
				c0.01-0.07,0.03-0.13,0.05-0.2c0.02-0.07,0.03-0.13,0.05-0.2c0.05-0.18,0.1-0.36,0.15-0.52c0.08-0.28,0.15-0.52,0.21-0.72
				c0.12-0.4,0.19-0.62,0.19-0.62s-0.05,0.23-0.13,0.64c-0.04,0.2-0.1,0.45-0.16,0.73c-0.03,0.15-0.07,0.32-0.11,0.49
				c-0.01,0.06-0.02,0.13-0.04,0.2c-0.01,0.06-0.03,0.13-0.04,0.2c0,0.02-0.01,0.04-0.01,0.06c-0.06,0.35-0.12,0.73-0.19,1.13
				c-0.03,0.2-0.07,0.41-0.1,0.62c-0.03,0.21-0.05,0.42-0.08,0.64c-0.05,0.44-0.11,0.9-0.16,1.36
				C31.42,28.32,31.39,28.55,31.36,28.78z M32.16,28.09c-0.03,0.23-0.06,0.46-0.09,0.7c-0.03,0.22-0.03,0.47-0.05,0.7
				c-0.07,0.94-0.14,1.88-0.2,2.76c-0.03,0.44-0.07,0.87-0.08,1.27c-0.02,0.4-0.04,0.79-0.05,1.14c-0.07,1.42-0.14,2.36-0.14,2.36
				s-0.03-0.95-0.03-2.37c0-0.35,0-0.74,0-1.14c0-0.41,0-0.84,0.04-1.28c0.05-0.89,0.11-1.83,0.16-2.78
				c0.02-0.24,0.03-0.47,0.06-0.71c0.03-0.23,0.06-0.47,0.1-0.7c0.06-0.46,0.12-0.91,0.18-1.35c0.03-0.22,0.05-0.43,0.1-0.65
				c0.02-0.1,0.04-0.19,0.06-0.29c0.02-0.11,0.05-0.22,0.07-0.33c0.04-0.2,0.09-0.4,0.13-0.59c0.04-0.18,0.08-0.36,0.11-0.53
				c0.02-0.12,0.05-0.23,0.08-0.34c0.06-0.21,0.12-0.42,0.17-0.6c0.08-0.28,0.15-0.52,0.21-0.72c0.12-0.4,0.19-0.62,0.19-0.62
				s-0.05,0.23-0.13,0.64c-0.04,0.2-0.09,0.45-0.16,0.73c-0.05,0.28-0.14,0.59-0.19,0.95c-0.03,0.17-0.06,0.35-0.09,0.53
				c-0.03,0.19-0.07,0.39-0.1,0.6c-0.03,0.18-0.06,0.37-0.1,0.57c0,0.02-0.01,0.03-0.01,0.05c-0.03,0.21-0.05,0.42-0.08,0.64
				c-0.03,0.29-0.07,0.59-0.11,0.89C32.2,27.78,32.18,27.93,32.16,28.09z M32.79,28.78c-0.03,0.22-0.03,0.47-0.05,0.7
				c-0.04,0.62-0.09,1.24-0.13,1.85c-0.02,0.31-0.04,0.62-0.07,0.92c-0.03,0.44-0.07,0.87-0.08,1.27c-0.02,0.36-0.03,0.69-0.05,1.01
				c0,0.04,0,0.09-0.01,0.14c-0.07,1.42-0.14,2.36-0.14,2.36s-0.02-0.95-0.03-2.37c0-0.35,0-0.74,0-1.14c0-0.41,0-0.84,0.04-1.28
				c0.04-0.74,0.09-1.52,0.13-2.3c0.01-0.16,0.02-0.32,0.03-0.48c0.02-0.24,0.03-0.47,0.06-0.71c0.03-0.23,0.06-0.47,0.09-0.7
				c0.01-0.04,0.01-0.07,0.02-0.11c0.06-0.42,0.11-0.84,0.17-1.24c0.03-0.22,0.05-0.43,0.09-0.65c0.05-0.21,0.09-0.41,0.13-0.61
				c0.08-0.4,0.17-0.77,0.24-1.12c0.06-0.35,0.17-0.66,0.25-0.94c0.08-0.28,0.15-0.52,0.21-0.72c0.12-0.4,0.19-0.62,0.19-0.62
				s-0.05,0.23-0.13,0.64c-0.04,0.2-0.1,0.45-0.16,0.73c-0.05,0.28-0.14,0.59-0.19,0.95c-0.06,0.35-0.12,0.73-0.19,1.13
				c-0.03,0.2-0.07,0.41-0.1,0.62c-0.03,0.21-0.05,0.42-0.08,0.64c-0.05,0.44-0.11,0.9-0.16,1.36
				C32.85,28.32,32.82,28.55,32.79,28.78z M33.51,28.78c-0.03,0.22-0.03,0.47-0.05,0.7c-0.07,0.94-0.14,1.88-0.2,2.76
				c-0.03,0.44-0.07,0.87-0.08,1.27c-0.02,0.4-0.04,0.79-0.05,1.14c-0.07,1.42-0.14,2.36-0.14,2.36s-0.03-0.95-0.03-2.37
				c0-0.35,0-0.74,0-1.14c0-0.41,0-0.84,0.04-1.28c0.05-0.89,0.11-1.83,0.16-2.78c0.02-0.24,0.03-0.47,0.06-0.71
				c0.03-0.23,0.06-0.47,0.1-0.7c0.06-0.46,0.12-0.91,0.19-1.35c0.03-0.22,0.05-0.43,0.09-0.65c0.04-0.21,0.09-0.41,0.13-0.61
				c0.08-0.4,0.17-0.77,0.24-1.12c0.06-0.35,0.18-0.66,0.25-0.94c0.08-0.28,0.15-0.52,0.21-0.72c0.12-0.4,0.19-0.62,0.19-0.62
				s-0.05,0.23-0.13,0.64c-0.04,0.2-0.1,0.45-0.16,0.73c-0.05,0.28-0.14,0.59-0.19,0.95c-0.06,0.35-0.12,0.73-0.19,1.13
				c-0.03,0.2-0.07,0.41-0.1,0.62c-0.03,0.21-0.05,0.42-0.08,0.64c-0.05,0.44-0.11,0.9-0.16,1.36
				C33.56,28.32,33.54,28.55,33.51,28.78z M34.22,28.78c-0.03,0.22-0.03,0.47-0.05,0.7c-0.07,0.94-0.14,1.88-0.2,2.76
				c-0.03,0.44-0.07,0.87-0.08,1.27c-0.02,0.4-0.04,0.79-0.05,1.14c-0.07,1.42-0.14,2.36-0.14,2.36s-0.02-0.95-0.03-2.37
				c0-0.35,0-0.74,0-1.14c0-0.41,0-0.84,0.04-1.28c0.05-0.89,0.11-1.83,0.16-2.78c0.02-0.24,0.03-0.47,0.06-0.71
				c0.03-0.23,0.06-0.47,0.1-0.7c0.06-0.46,0.13-0.91,0.19-1.35c0.03-0.22,0.06-0.43,0.09-0.65c0.04-0.21,0.09-0.41,0.13-0.61
				c0.09-0.4,0.17-0.77,0.24-1.12c0.06-0.35,0.17-0.66,0.25-0.94c0.08-0.28,0.15-0.52,0.21-0.72c0.12-0.4,0.19-0.62,0.19-0.62
				s-0.05,0.23-0.13,0.64c-0.04,0.2-0.1,0.45-0.16,0.73c-0.05,0.28-0.14,0.59-0.19,0.95c-0.06,0.35-0.12,0.73-0.19,1.13
				c-0.03,0.2-0.07,0.41-0.1,0.62c-0.03,0.21-0.05,0.42-0.08,0.64c-0.05,0.44-0.11,0.9-0.17,1.36
				C34.28,28.32,34.25,28.55,34.22,28.78z M35.27,26.09c-0.03,0.21-0.05,0.42-0.08,0.64c-0.05,0.44-0.11,0.9-0.16,1.36
				c-0.03,0.23-0.06,0.46-0.09,0.7c-0.03,0.22-0.03,0.47-0.05,0.7c-0.07,0.94-0.14,1.88-0.2,2.76c-0.03,0.44-0.07,0.87-0.08,1.27
				c-0.02,0.4-0.03,0.79-0.05,1.14c-0.07,1.42-0.14,2.36-0.14,2.36s-0.03-0.95-0.03-2.37c0-0.35,0-0.74,0-1.14
				c-0.01-0.41,0.01-0.84,0.04-1.28c0.05-0.89,0.11-1.83,0.16-2.78c0.02-0.24,0.03-0.47,0.05-0.71c0.03-0.23,0.06-0.47,0.1-0.7
				c0.06-0.46,0.12-0.91,0.19-1.35c0.03-0.22,0.05-0.43,0.09-0.65c0.04-0.21,0.09-0.41,0.13-0.61c0.09-0.4,0.17-0.77,0.24-1.12
				c0.06-0.35,0.18-0.66,0.25-0.94c0.08-0.28,0.15-0.52,0.21-0.72c0.12-0.4,0.19-0.62,0.19-0.62s-0.05,0.23-0.13,0.64
				c-0.04,0.2-0.1,0.45-0.16,0.73c-0.05,0.28-0.14,0.59-0.19,0.95c-0.06,0.35-0.12,0.73-0.19,1.13
				C35.34,25.67,35.3,25.88,35.27,26.09z"/>
			<path class="st0" d="M42.04,39.5c0-6.17,0.35-11.97,0.99-16.34c0.65-4.39,1.39-6.05,1.97-6.69h-5.56c-0.43,0-1.04,0.24-1.24,0.62
				c-0.19,0.36-0.42,0.91-0.66,1.77c-0.02,0.06-0.04,0.13-0.06,0.19c-0.02,0.06-0.03,0.13-0.05,0.2c-0.76,2.95-1.61,8.96-1.61,21.18
				c0,11.02,0.69,16.54,1.38,19.31c0.02,0.07,0.03,0.13,0.05,0.2c0.02,0.06,0.04,0.13,0.05,0.19c0.28,0.98,0.54,1.56,0.77,1.9
				c0.24,0.36,0.93,0.49,1.36,0.49H45c-0.58-0.63-1.32-2.3-1.97-6.69C42.39,51.47,42.04,45.67,42.04,39.5z M37.35,25.75
				c-0.07,0.94-0.18,1.87-0.21,2.75c-0.04,0.88-0.11,1.7-0.15,2.4c-0.08,1.41-0.16,2.35-0.16,2.35s-0.02-0.94-0.01-2.35
				c0.01-0.71,0.02-1.53,0.06-2.41c0.01-0.44,0.04-0.9,0.07-1.36c0.03-0.46,0.06-0.93,0.1-1.4c0.03-0.47,0.1-0.94,0.16-1.4
				c0.07-0.46,0.13-0.91,0.19-1.35c0.05-0.44,0.15-0.87,0.24-1.26c0.09-0.39,0.17-0.77,0.25-1.11c0.07-0.34,0.19-0.65,0.27-0.93
				c0.01-0.02,0.01-0.04,0.02-0.06c0.06-0.21,0.12-0.39,0.17-0.56c0.01-0.03,0.02-0.06,0.03-0.09c0.01-0.04,0.02-0.07,0.03-0.1
				c0.1-0.32,0.17-0.51,0.17-0.51s-0.04,0.19-0.11,0.51c-0.01,0.04-0.02,0.08-0.03,0.12c-0.02,0.09-0.04,0.18-0.07,0.29
				c-0.03,0.13-0.07,0.28-0.1,0.43c-0.03,0.12-0.06,0.25-0.09,0.39c-0.04,0.17-0.09,0.35-0.12,0.55c-0.06,0.35-0.13,0.72-0.2,1.12
				c-0.08,0.4-0.15,0.81-0.19,1.25c-0.05,0.44-0.11,0.89-0.17,1.35C37.44,24.82,37.38,25.28,37.35,25.75z M38.28,24.36
				c-0.04,0.31-0.08,0.63-0.1,0.95c-0.02,0.15-0.03,0.3-0.04,0.44c-0.07,0.94-0.18,1.87-0.21,2.75c-0.04,0.88-0.12,1.7-0.15,2.4
				c-0.09,1.41-0.17,2.35-0.17,2.35s-0.02-0.94-0.01-2.35c0.01-0.71,0.02-1.53,0.06-2.41c0.01-0.44,0.04-0.9,0.07-1.36
				c0.03-0.46,0.07-0.93,0.1-1.4c0.03-0.47,0.1-0.94,0.16-1.4c0.06-0.45,0.13-0.89,0.19-1.33c0-0.01,0-0.02,0-0.02
				c0.04-0.37,0.12-0.71,0.19-1.04c0.02-0.07,0.03-0.14,0.05-0.21c0.05-0.23,0.1-0.45,0.15-0.67c0.03-0.15,0.07-0.3,0.1-0.45
				c0.07-0.34,0.19-0.65,0.27-0.93c0.09-0.28,0.16-0.51,0.23-0.71c0.13-0.39,0.2-0.61,0.2-0.61s-0.05,0.23-0.14,0.63
				c-0.05,0.2-0.1,0.44-0.17,0.72c-0.06,0.28-0.15,0.59-0.21,0.94c-0.06,0.35-0.13,0.72-0.2,1.12c-0.03,0.14-0.05,0.29-0.08,0.44
				c-0.05,0.26-0.09,0.53-0.12,0.82c-0.03,0.2-0.05,0.42-0.08,0.63C38.34,23.88,38.31,24.11,38.28,24.36z M38.91,25.75
				c-0.07,0.94-0.18,1.87-0.21,2.75c-0.04,0.81-0.1,1.56-0.14,2.23c0,0.06-0.01,0.12-0.01,0.18c-0.08,1.41-0.17,2.35-0.17,2.35
				s-0.02-0.94-0.01-2.35c0.01-0.71,0.02-1.53,0.06-2.41c0.01-0.44,0.04-0.9,0.07-1.36c0.02-0.27,0.04-0.55,0.06-0.83
				c0.01-0.19,0.03-0.38,0.04-0.57c0.03-0.47,0.1-0.94,0.16-1.4c0.06-0.46,0.13-0.91,0.19-1.35c0.05-0.44,0.15-0.87,0.24-1.26
				c0.09-0.39,0.17-0.77,0.25-1.11c0.07-0.34,0.19-0.65,0.27-0.93c0.09-0.28,0.16-0.51,0.23-0.71c0.13-0.39,0.2-0.61,0.2-0.61
				s-0.05,0.23-0.14,0.63c-0.05,0.2-0.1,0.44-0.17,0.72c-0.06,0.28-0.16,0.59-0.21,0.94c-0.06,0.35-0.13,0.72-0.2,1.12
				c-0.07,0.4-0.15,0.81-0.19,1.25c-0.05,0.44-0.11,0.89-0.17,1.35C39,24.82,38.94,25.28,38.91,25.75z M39.7,25.75
				c-0.07,0.94-0.18,1.87-0.21,2.75c-0.04,0.88-0.12,1.7-0.15,2.4c-0.08,1.41-0.16,2.35-0.16,2.35s-0.02-0.94-0.01-2.35
				c0.01-0.71,0.02-1.53,0.05-2.41c0.01-0.44,0.04-0.9,0.07-1.36c0.03-0.46,0.07-0.93,0.1-1.4c0.03-0.47,0.09-0.94,0.16-1.4
				c0.06-0.46,0.13-0.91,0.19-1.35c0.05-0.44,0.15-0.87,0.24-1.26c0.09-0.39,0.17-0.77,0.25-1.11c0.07-0.34,0.19-0.65,0.27-0.93
				c0.09-0.28,0.16-0.51,0.22-0.71c0.13-0.39,0.2-0.61,0.2-0.61s-0.05,0.23-0.14,0.63c-0.05,0.2-0.1,0.44-0.17,0.72
				c-0.06,0.28-0.15,0.59-0.21,0.94c-0.06,0.35-0.13,0.72-0.2,1.12c-0.07,0.4-0.15,0.81-0.19,1.25c-0.05,0.44-0.11,0.89-0.17,1.35
				C39.78,24.82,39.72,25.28,39.7,25.75z M40.48,25.75c-0.07,0.94-0.18,1.87-0.21,2.75c-0.04,0.88-0.12,1.7-0.15,2.4
				c-0.09,1.41-0.17,2.35-0.17,2.35s-0.02-0.94-0.01-2.35c0.01-0.71,0.02-1.53,0.06-2.41c0.01-0.44,0.04-0.9,0.07-1.36
				c0.03-0.46,0.07-0.93,0.1-1.4c0.03-0.47,0.1-0.94,0.16-1.4c0.07-0.46,0.13-0.91,0.19-1.35c0.05-0.44,0.15-0.87,0.24-1.26
				c0.09-0.39,0.17-0.77,0.25-1.11c0.07-0.34,0.19-0.65,0.27-0.93c0.08-0.28,0.16-0.51,0.22-0.71c0.13-0.39,0.2-0.61,0.2-0.61
				s-0.05,0.23-0.14,0.63c-0.05,0.2-0.11,0.44-0.17,0.72c-0.06,0.28-0.15,0.59-0.21,0.94c-0.06,0.35-0.13,0.72-0.2,1.12
				c-0.07,0.4-0.14,0.81-0.19,1.25c-0.05,0.44-0.11,0.89-0.17,1.35C40.56,24.82,40.5,25.28,40.48,25.75z M41.26,25.75
				c-0.07,0.94-0.18,1.87-0.21,2.75c-0.04,0.88-0.12,1.7-0.15,2.4c-0.08,1.41-0.16,2.35-0.16,2.35s-0.02-0.94-0.01-2.35
				c0.01-0.71,0.02-1.53,0.06-2.41c0.01-0.44,0.04-0.9,0.07-1.36c0.03-0.46,0.07-0.93,0.1-1.4c0.03-0.47,0.1-0.94,0.16-1.4
				c0.07-0.46,0.13-0.91,0.19-1.35c0.05-0.44,0.15-0.87,0.24-1.26c0.09-0.39,0.17-0.77,0.25-1.11c0.07-0.34,0.19-0.65,0.27-0.93
				c0.09-0.28,0.16-0.51,0.22-0.71c0.13-0.39,0.2-0.61,0.2-0.61s-0.05,0.23-0.14,0.63c-0.05,0.2-0.11,0.44-0.17,0.72
				c-0.06,0.28-0.16,0.59-0.21,0.94c-0.06,0.35-0.13,0.72-0.2,1.12c-0.07,0.4-0.15,0.81-0.19,1.25c-0.05,0.44-0.11,0.89-0.17,1.35
				C41.34,24.82,41.28,25.28,41.26,25.75z M41.82,28.5c-0.04,0.88-0.12,1.7-0.15,2.4c-0.08,1.41-0.17,2.35-0.17,2.35
				s-0.02-0.94-0.01-2.35c0.01-0.71,0.02-1.53,0.06-2.41c0.01-0.44,0.04-0.9,0.07-1.36c0.03-0.46,0.07-0.93,0.1-1.4
				c0.03-0.47,0.1-0.94,0.16-1.4c0.06-0.46,0.13-0.91,0.19-1.35c0.05-0.44,0.15-0.87,0.24-1.26c0.09-0.39,0.17-0.77,0.25-1.11
				c0.07-0.34,0.19-0.65,0.27-0.93c0.09-0.28,0.16-0.51,0.23-0.71c0.13-0.39,0.2-0.61,0.2-0.61s-0.05,0.23-0.14,0.63
				c-0.05,0.2-0.1,0.44-0.17,0.72c-0.06,0.28-0.16,0.59-0.21,0.94c-0.06,0.35-0.13,0.72-0.2,1.12c-0.08,0.4-0.15,0.81-0.19,1.25
				c-0.05,0.44-0.11,0.89-0.17,1.35c-0.06,0.46-0.12,0.92-0.14,1.39C41.97,26.69,41.86,27.62,41.82,28.5z"/>
			<path class="st0" d="M188.43,41.07h16.89c0,0,0.13-0.05,0.23-0.47h-17.11C188.44,40.76,188.43,40.92,188.43,41.07z"/>
			<path class="st0" d="M205.61,38.61c-0.09-0.7-0.28-0.69-0.28-0.69h-16.88c0,0.22,0,0.45,0.01,0.69H205.61z"/>
			<path class="st0" d="M205.63,38.88h-17.19c0,0.14,0,0.27,0,0.41c0,0.15,0,0.29,0,0.43h17.2c0-0.09,0-0.19,0-0.29
				C205.65,39.22,205.65,39.03,205.63,38.88z"/>
			<path class="st0" d="M186.6,26.82c-0.16-0.4-0.71-0.69-1.15-0.69h-0.91c0.44,1.97,1.04,5.88,1.04,13.37
				c0,7.65-0.62,11.45-1.06,13.37h0.93c0.43,0,0.96-0.3,1.12-0.7c0.48-1.23,1.33-4.33,1.46-11.09c0.01-0.57,0.02-1.16,0.02-1.78
				c0-0.47,0-0.93-0.01-1.36C187.95,31.03,187.11,28.01,186.6,26.82z M186.15,38.02c-0.02,0.76-0.05,1.27-0.05,1.27
				s-0.03-0.4-0.05-1.01c0-0.08-0.01-0.17-0.01-0.26c-0.01-0.23-0.03-0.48-0.05-0.74c-0.01-0.18-0.03-0.36-0.03-0.56
				c-0.01-0.19-0.02-0.39-0.03-0.59l-0.01-0.29c-0.01-0.2-0.02-0.41-0.04-0.61c-0.03-0.51-0.05-1.01-0.08-1.49
				c0-0.09-0.01-0.17-0.01-0.26c-0.01-0.27-0.03-0.53-0.04-0.77c-0.01-0.09-0.01-0.18-0.02-0.27c-0.05-0.76-0.06-1.27-0.06-1.27
				s0.08,0.5,0.18,1.26c0.05,0.38,0.11,0.82,0.14,1.3c0.03,0.47,0.07,0.98,0.1,1.49c0.03,0.51,0.04,1.02,0.06,1.49
				C186.14,37.19,186.16,37.64,186.15,38.02z M186.66,38.02c-0.02,0.76-0.05,1.27-0.05,1.27s-0.03-0.38-0.05-0.98
				c0-0.09-0.01-0.19-0.01-0.29c-0.01-0.23-0.03-0.5-0.05-0.77c-0.01-0.17-0.02-0.35-0.03-0.53c-0.01-0.18-0.02-0.37-0.03-0.57
				l-0.02-0.33c-0.01-0.2-0.02-0.39-0.04-0.59c-0.03-0.51-0.06-1.01-0.08-1.49c0-0.09-0.01-0.17-0.01-0.25
				c-0.01-0.27-0.03-0.53-0.04-0.77c-0.01-0.09-0.01-0.18-0.02-0.27c-0.05-0.76-0.07-1.27-0.07-1.27s0.08,0.5,0.18,1.26
				c0.05,0.38,0.11,0.82,0.14,1.3c0.03,0.47,0.07,0.98,0.11,1.49c0.03,0.51,0.03,1.02,0.05,1.49
				C186.65,37.19,186.66,37.64,186.66,38.02z M187.16,38.02c-0.02,0.76-0.05,1.27-0.05,1.27s-0.03-0.4-0.06-1.01
				c0-0.08-0.01-0.17-0.01-0.26c0-0.03,0-0.06-0.01-0.09c-0.01-0.2-0.03-0.42-0.04-0.65c-0.01-0.18-0.02-0.36-0.03-0.56
				c-0.01-0.19-0.02-0.39-0.03-0.59l-0.02-0.29c-0.01-0.2-0.02-0.41-0.04-0.61c-0.03-0.51-0.06-1.01-0.08-1.49
				c0-0.09-0.01-0.17-0.01-0.26c-0.01-0.27-0.03-0.53-0.04-0.77c-0.01-0.09-0.01-0.18-0.02-0.27c-0.05-0.76-0.06-1.27-0.06-1.27
				s0.08,0.5,0.18,1.26c0.05,0.38,0.11,0.82,0.14,1.3c0.03,0.47,0.07,0.98,0.11,1.49c0.03,0.51,0.04,1.02,0.05,1.49
				c0.01,0.44,0.02,0.85,0.02,1.21C187.16,37.96,187.16,37.99,187.16,38.02z M187.67,38.02c-0.02,0.76-0.05,1.27-0.05,1.27
				s-0.03-0.38-0.05-0.98c-0.01-0.09-0.01-0.19-0.01-0.29c0-0.03,0-0.06,0-0.09c-0.01-0.21-0.02-0.44-0.04-0.68
				c-0.01-0.17-0.02-0.35-0.03-0.53c-0.01-0.18-0.02-0.37-0.03-0.57l-0.02-0.33c-0.01-0.2-0.02-0.39-0.04-0.59
				c-0.03-0.51-0.05-1.01-0.08-1.49c0-0.09-0.01-0.17-0.01-0.25c-0.01-0.27-0.03-0.53-0.04-0.77c-0.01-0.09-0.02-0.18-0.02-0.27
				c-0.05-0.76-0.06-1.27-0.06-1.27s0.08,0.5,0.18,1.26c0.04,0.38,0.11,0.82,0.14,1.3c0.04,0.47,0.07,0.98,0.11,1.49
				c0.03,0.51,0.04,1.02,0.05,1.49c0.01,0.44,0.02,0.85,0.02,1.21C187.67,37.96,187.67,37.99,187.67,38.02z"/>
			<path class="st0" d="M184.15,26.13c-0.02-0.07-0.03-0.13-0.05-0.2c-0.02-0.07-0.03-0.13-0.05-0.19
				c-0.09-0.36-0.17-0.64-0.23-0.84c-0.12-0.42-0.73-0.62-1.17-0.62h-2.55c0.6,3.05,1.08,7.78,1.08,15.14
				c0,7.44-0.49,12.23-1.1,15.3h2.57c0.43,0,1.03-0.24,1.14-0.65c0.06-0.2,0.13-0.47,0.22-0.81c0.02-0.06,0.03-0.13,0.05-0.2
				c0.02-0.06,0.03-0.13,0.05-0.19c0.45-1.87,1.07-5.62,1.07-13.37C185.2,31.92,184.58,28.05,184.15,26.13z M181.78,38.13
				c0,0,0-0.04-0.01-0.09c-0.01-0.21-0.05-0.75-0.09-1.49c-0.02-0.48-0.05-1.03-0.07-1.63c-0.03-0.59-0.08-1.23-0.12-1.86
				c-0.02-0.32-0.03-0.63-0.05-0.95c-0.02-0.31-0.05-0.62-0.08-0.92c-0.03-0.3-0.05-0.58-0.07-0.86c-0.03-0.27-0.03-0.53-0.07-0.77
				c-0.1-0.95-0.16-1.59-0.16-1.59s0.11,0.63,0.27,1.57c0.04,0.23,0.06,0.49,0.1,0.76c0.03,0.27,0.06,0.56,0.09,0.86
				c0.07,0.6,0.11,1.23,0.15,1.87c0.03,0.64,0.07,1.27,0.09,1.87c0.01,0.6,0.01,1.16,0.01,1.63
				C181.79,37.49,181.78,38.13,181.78,38.13z M182.36,38.13c0,0,0-0.04-0.01-0.09c0-0.06-0.01-0.16-0.02-0.28
				c-0.02-0.28-0.04-0.7-0.07-1.21c-0.02-0.48-0.05-1.03-0.07-1.63c-0.02-0.29-0.03-0.59-0.05-0.9c-0.02-0.32-0.04-0.64-0.06-0.97
				c-0.02-0.32-0.03-0.63-0.05-0.95c-0.02-0.31-0.05-0.62-0.08-0.92c-0.02-0.3-0.05-0.58-0.06-0.86c-0.02-0.27-0.03-0.53-0.07-0.77
				c-0.1-0.95-0.16-1.59-0.16-1.59s0.12,0.63,0.27,1.57c0.04,0.23,0.06,0.49,0.1,0.76c0.03,0.27,0.06,0.56,0.1,0.86
				c0,0.05,0.01,0.1,0.01,0.15c0.06,0.55,0.1,1.13,0.14,1.72c0.02,0.39,0.04,0.79,0.06,1.17c0.01,0.24,0.02,0.48,0.03,0.7
				c0.01,0.6,0.01,1.16,0.01,1.63C182.37,37.49,182.36,38.13,182.36,38.13z M182.95,38.13c0,0,0-0.04-0.01-0.09
				c-0.01-0.21-0.05-0.75-0.09-1.49c-0.02-0.48-0.05-1.03-0.07-1.63c-0.03-0.59-0.08-1.23-0.12-1.86c-0.02-0.32-0.03-0.63-0.04-0.95
				c-0.02-0.31-0.05-0.62-0.08-0.92c-0.01-0.04-0.01-0.07-0.01-0.11c-0.02-0.26-0.04-0.51-0.06-0.75c-0.02-0.27-0.03-0.53-0.06-0.77
				c-0.03-0.26-0.05-0.5-0.07-0.71c-0.05-0.54-0.09-0.88-0.09-0.88s0.03,0.18,0.09,0.48c0.05,0.27,0.11,0.64,0.19,1.09
				c0,0.02,0,0.05,0.01,0.07c0.03,0.22,0.06,0.45,0.09,0.69c0.03,0.27,0.06,0.56,0.1,0.86c0.07,0.6,0.12,1.23,0.15,1.87
				c0.03,0.64,0.07,1.27,0.09,1.87c0,0.6,0.01,1.16,0.01,1.63C182.96,37.49,182.95,38.13,182.95,38.13z M183.53,38.13
				c0,0,0-0.04-0.01-0.09c-0.02-0.21-0.05-0.75-0.09-1.49c-0.02-0.48-0.05-1.03-0.07-1.63c-0.03-0.59-0.08-1.23-0.12-1.86
				c-0.01-0.32-0.03-0.63-0.05-0.95c-0.02-0.31-0.05-0.62-0.07-0.92c-0.03-0.3-0.05-0.58-0.07-0.86c-0.02-0.27-0.03-0.53-0.06-0.77
				c-0.1-0.95-0.16-1.59-0.16-1.59s0.11,0.63,0.27,1.57c0.04,0.23,0.06,0.49,0.1,0.76c0.03,0.27,0.06,0.56,0.09,0.86
				c0.07,0.6,0.11,1.23,0.15,1.87c0.03,0.64,0.07,1.27,0.09,1.87c0,0.6,0.01,1.16,0.01,1.63C183.55,37.49,183.53,38.13,183.53,38.13
				z M184.12,38.13c0,0,0-0.04-0.01-0.09c-0.01-0.21-0.05-0.75-0.09-1.49c-0.02-0.48-0.05-1.03-0.07-1.63
				c-0.03-0.59-0.08-1.23-0.11-1.86c-0.02-0.32-0.04-0.63-0.05-0.95c-0.02-0.31-0.05-0.62-0.07-0.92c-0.03-0.3-0.05-0.58-0.07-0.86
				c-0.02-0.27-0.03-0.53-0.06-0.77c-0.1-0.95-0.16-1.59-0.16-1.59s0.11,0.63,0.27,1.57c0.04,0.23,0.06,0.49,0.1,0.76
				c0.03,0.27,0.06,0.56,0.09,0.86c0.07,0.6,0.12,1.23,0.15,1.87c0.03,0.64,0.07,1.27,0.09,1.87c0,0.6,0.01,1.16,0.01,1.63
				C184.13,37.49,184.12,38.13,184.12,38.13z M184.7,38.03c-0.02-0.21-0.05-0.75-0.09-1.49c-0.02-0.48-0.04-1.03-0.07-1.63
				c-0.03-0.59-0.08-1.23-0.12-1.86c-0.01-0.32-0.03-0.63-0.05-0.95c-0.02-0.31-0.05-0.62-0.07-0.92c-0.02-0.3-0.05-0.58-0.07-0.86
				c-0.02-0.27-0.03-0.53-0.06-0.77c-0.1-0.95-0.16-1.59-0.16-1.59s0.12,0.63,0.27,1.57c0.04,0.23,0.06,0.49,0.1,0.76
				c0.03,0.27,0.06,0.56,0.09,0.86c0.07,0.6,0.12,1.23,0.15,1.87c0.03,0.64,0.07,1.27,0.09,1.87c0,0.6,0.01,1.16,0.01,1.63
				c0,0.95-0.02,1.59-0.02,1.59S184.7,38.09,184.7,38.03z"/>
			<path class="st0" d="M179.71,24.28c-0.02-0.07-0.03-0.13-0.04-0.2c-0.01-0.07-0.03-0.13-0.04-0.2c-0.48-2.23-0.99-3.42-1.36-4.03
				c-0.22-0.37-0.84-0.61-1.27-0.61h-4.03c0.79,3.08,1.59,9.17,1.59,21.18c0,10.86-0.67,16.44-1.38,19.31H177
				c0.43,0,1.04-0.24,1.26-0.62c0.36-0.62,0.88-1.8,1.35-4.02c0.01-0.06,0.03-0.13,0.04-0.19c0.01-0.06,0.03-0.13,0.04-0.19
				c0.61-3.02,1.12-7.79,1.12-15.3C180.81,31.99,180.31,27.27,179.71,24.28z M175.59,37.02c0,0-0.07-0.95-0.14-2.36
				c-0.02-0.35-0.04-0.74-0.05-1.14c-0.01-0.41-0.05-0.84-0.08-1.27c-0.07-0.88-0.13-1.82-0.2-2.76c-0.02-0.23-0.02-0.48-0.05-0.7
				c-0.03-0.23-0.05-0.47-0.08-0.7c-0.06-0.46-0.11-0.92-0.17-1.36c-0.03-0.22-0.05-0.43-0.08-0.64c-0.03-0.21-0.07-0.42-0.1-0.62
				c-0.07-0.4-0.13-0.78-0.19-1.13c-0.05-0.35-0.14-0.66-0.19-0.95c-0.06-0.28-0.11-0.53-0.16-0.73c-0.08-0.41-0.13-0.64-0.13-0.64
				s0.07,0.23,0.19,0.62c0.06,0.2,0.13,0.44,0.21,0.72c0.08,0.28,0.19,0.59,0.25,0.94c0.07,0.35,0.16,0.72,0.24,1.12
				c0.04,0.2,0.08,0.4,0.13,0.61c0.04,0.22,0.06,0.43,0.1,0.65c0.06,0.44,0.12,0.89,0.18,1.35c0.03,0.23,0.06,0.46,0.1,0.7
				c0.03,0.24,0.04,0.47,0.06,0.71c0.06,0.95,0.11,1.89,0.16,2.78c0.03,0.44,0.04,0.87,0.04,1.28c0,0.41,0,0.79,0,1.14
				C175.61,36.08,175.59,37.02,175.59,37.02z M176.3,37.02c0,0-0.07-0.95-0.14-2.36c-0.02-0.35-0.04-0.74-0.05-1.14
				c-0.01-0.41-0.05-0.84-0.08-1.27c-0.07-0.88-0.13-1.82-0.2-2.76c-0.02-0.23-0.02-0.48-0.05-0.7c-0.03-0.23-0.06-0.47-0.09-0.7
				c-0.06-0.46-0.11-0.92-0.17-1.36c-0.03-0.22-0.05-0.43-0.08-0.64c-0.04-0.21-0.07-0.42-0.1-0.62c-0.07-0.4-0.13-0.78-0.19-1.13
				c-0.05-0.35-0.14-0.66-0.19-0.95c-0.06-0.28-0.11-0.53-0.15-0.73c-0.08-0.41-0.13-0.64-0.13-0.64s0.07,0.23,0.19,0.62
				c0.06,0.2,0.13,0.44,0.21,0.72c0.08,0.28,0.19,0.59,0.25,0.94c0.08,0.35,0.16,0.72,0.24,1.12c0.04,0.2,0.09,0.4,0.13,0.61
				c0.04,0.22,0.06,0.43,0.09,0.65c0.06,0.44,0.12,0.89,0.19,1.35c0.03,0.23,0.06,0.46,0.1,0.7c0.03,0.24,0.04,0.47,0.06,0.71
				c0.06,0.95,0.11,1.89,0.16,2.78c0.03,0.44,0.04,0.87,0.04,1.28c0,0.41,0,0.79,0,1.14C176.33,36.08,176.3,37.02,176.3,37.02z
				 M177.02,37.02c0,0-0.07-0.95-0.14-2.36c-0.02-0.35-0.03-0.74-0.05-1.14c-0.01-0.41-0.05-0.84-0.09-1.27
				c-0.06-0.88-0.13-1.82-0.2-2.76c-0.02-0.23-0.02-0.48-0.05-0.7c-0.03-0.23-0.05-0.47-0.08-0.7c-0.06-0.46-0.11-0.92-0.17-1.36
				c-0.03-0.22-0.05-0.43-0.08-0.64c-0.04-0.21-0.07-0.42-0.1-0.62c-0.07-0.4-0.13-0.78-0.19-1.13c-0.05-0.35-0.14-0.66-0.19-0.95
				c-0.06-0.28-0.11-0.53-0.16-0.73c-0.08-0.41-0.13-0.64-0.13-0.64s0.07,0.23,0.19,0.62c0.06,0.2,0.13,0.44,0.21,0.72
				c0.08,0.28,0.19,0.59,0.25,0.94c0.07,0.35,0.15,0.72,0.24,1.12c0.04,0.2,0.09,0.4,0.13,0.61c0.04,0.22,0.06,0.43,0.1,0.65
				c0.06,0.44,0.12,0.89,0.18,1.35c0.03,0.23,0.06,0.46,0.1,0.7c0.03,0.24,0.04,0.47,0.06,0.71c0.06,0.95,0.11,1.89,0.16,2.78
				c0.03,0.44,0.04,0.87,0.04,1.28c0,0.41,0,0.79,0,1.14C177.04,36.08,177.02,37.02,177.02,37.02z M177.74,37.02
				c0,0-0.07-0.95-0.14-2.36c0-0.04-0.01-0.09-0.01-0.13c-0.01-0.32-0.03-0.65-0.05-1.01c-0.01-0.41-0.05-0.84-0.08-1.27
				c-0.02-0.3-0.05-0.61-0.07-0.92c-0.04-0.61-0.09-1.22-0.13-1.85c-0.02-0.23-0.02-0.48-0.05-0.7c-0.03-0.23-0.06-0.47-0.08-0.7
				c-0.06-0.46-0.11-0.92-0.17-1.36c-0.03-0.22-0.06-0.43-0.08-0.64c-0.03-0.21-0.07-0.42-0.1-0.62c-0.07-0.4-0.13-0.78-0.19-1.13
				c-0.05-0.35-0.14-0.66-0.19-0.95c-0.06-0.28-0.11-0.53-0.16-0.73c-0.08-0.41-0.13-0.64-0.13-0.64s0.07,0.23,0.19,0.62
				c0.06,0.2,0.13,0.44,0.21,0.72c0.08,0.28,0.19,0.59,0.25,0.94c0.07,0.35,0.16,0.72,0.24,1.12c0.04,0.2,0.09,0.4,0.13,0.61
				c0.04,0.22,0.06,0.43,0.09,0.65c0.05,0.4,0.11,0.82,0.17,1.24c0.01,0.04,0.01,0.07,0.01,0.11c0.03,0.23,0.06,0.46,0.1,0.7
				c0.03,0.24,0.04,0.47,0.06,0.71c0.01,0.16,0.02,0.32,0.03,0.48c0.04,0.78,0.09,1.56,0.13,2.3c0.03,0.44,0.04,0.87,0.04,1.28
				c0,0.41,0,0.79,0,1.14C177.76,36.08,177.74,37.02,177.74,37.02z M178.45,37.02c0,0-0.07-0.95-0.14-2.36
				c-0.02-0.35-0.03-0.74-0.05-1.14c-0.01-0.41-0.05-0.84-0.08-1.27c-0.06-0.88-0.13-1.82-0.2-2.76c-0.02-0.23-0.02-0.48-0.05-0.7
				c-0.03-0.23-0.06-0.47-0.09-0.7c-0.02-0.16-0.04-0.31-0.06-0.47c-0.04-0.3-0.07-0.6-0.11-0.89c-0.03-0.22-0.05-0.43-0.08-0.64
				c0-0.02-0.01-0.03-0.01-0.05c-0.03-0.19-0.06-0.39-0.09-0.57c-0.04-0.21-0.07-0.4-0.1-0.6c-0.03-0.18-0.06-0.36-0.09-0.53
				c-0.05-0.35-0.14-0.66-0.19-0.95c-0.06-0.28-0.11-0.53-0.16-0.73c-0.08-0.41-0.13-0.64-0.13-0.64s0.07,0.23,0.19,0.62
				c0.06,0.2,0.13,0.44,0.21,0.72c0.05,0.19,0.11,0.39,0.17,0.6c0.03,0.11,0.06,0.22,0.08,0.34c0.04,0.17,0.08,0.35,0.11,0.53
				c0.04,0.19,0.08,0.39,0.13,0.59c0.02,0.11,0.05,0.22,0.07,0.33c0.02,0.1,0.04,0.19,0.06,0.29c0.04,0.22,0.06,0.43,0.09,0.65
				c0.06,0.44,0.12,0.89,0.19,1.35c0.03,0.23,0.06,0.46,0.09,0.7c0.03,0.24,0.04,0.47,0.06,0.71c0.06,0.95,0.11,1.89,0.16,2.78
				c0.03,0.44,0.04,0.87,0.04,1.28c0,0.41,0,0.79,0,1.14C178.48,36.08,178.45,37.02,178.45,37.02z M179.17,37.02
				c0,0-0.07-0.95-0.14-2.36c-0.02-0.35-0.03-0.74-0.05-1.14c-0.01-0.41-0.05-0.84-0.08-1.27c-0.06-0.88-0.13-1.82-0.2-2.76
				c-0.02-0.23-0.03-0.48-0.05-0.7c-0.03-0.23-0.06-0.47-0.08-0.7c-0.06-0.46-0.11-0.92-0.17-1.36c-0.03-0.22-0.05-0.43-0.08-0.64
				c-0.04-0.21-0.07-0.42-0.1-0.62c-0.07-0.4-0.13-0.78-0.19-1.13c0-0.02-0.01-0.04-0.01-0.06c-0.01-0.07-0.02-0.13-0.04-0.2
				c-0.01-0.07-0.02-0.13-0.04-0.2c-0.04-0.17-0.08-0.34-0.11-0.49c-0.06-0.28-0.11-0.53-0.15-0.73c-0.08-0.41-0.13-0.64-0.13-0.64
				s0.07,0.23,0.19,0.62c0.06,0.2,0.13,0.44,0.21,0.72c0.04,0.16,0.1,0.33,0.15,0.52c0.02,0.06,0.03,0.13,0.05,0.2
				c0.01,0.06,0.03,0.13,0.05,0.2c0,0.01,0.01,0.02,0.01,0.03c0.08,0.35,0.15,0.72,0.24,1.12c0.04,0.2,0.09,0.4,0.13,0.61
				c0.04,0.22,0.06,0.43,0.09,0.65c0.06,0.44,0.12,0.89,0.18,1.35c0.03,0.23,0.06,0.46,0.09,0.7c0.03,0.24,0.04,0.47,0.06,0.71
				c0.05,0.95,0.11,1.89,0.16,2.78c0.03,0.44,0.04,0.87,0.04,1.28c0,0.41,0,0.79,0,1.14C179.19,36.08,179.17,37.02,179.17,37.02z
				 M179.74,34.66c-0.02-0.35-0.03-0.74-0.05-1.14c-0.01-0.41-0.05-0.84-0.08-1.27c-0.06-0.88-0.13-1.82-0.2-2.76
				c-0.02-0.23-0.02-0.48-0.05-0.7c-0.03-0.23-0.06-0.47-0.09-0.7c-0.06-0.46-0.11-0.92-0.17-1.36c-0.03-0.22-0.05-0.43-0.08-0.64
				c-0.03-0.21-0.07-0.42-0.1-0.62c-0.07-0.4-0.13-0.78-0.19-1.13c0-0.02-0.01-0.04-0.01-0.06c-0.01-0.07-0.03-0.13-0.04-0.2
				c-0.01-0.07-0.02-0.13-0.04-0.2c-0.04-0.17-0.08-0.34-0.1-0.49c-0.06-0.28-0.11-0.53-0.16-0.73c-0.08-0.41-0.13-0.64-0.13-0.64
				s0.07,0.23,0.19,0.62c0.06,0.2,0.13,0.44,0.21,0.72c0.04,0.16,0.1,0.33,0.15,0.52c0.02,0.06,0.03,0.13,0.05,0.2
				c0.02,0.06,0.04,0.13,0.05,0.2c0,0.01,0,0.02,0.01,0.03c0.07,0.35,0.15,0.72,0.24,1.12c0.04,0.2,0.09,0.4,0.13,0.61
				c0.04,0.22,0.06,0.43,0.09,0.65c0.06,0.44,0.12,0.89,0.19,1.35c0.03,0.23,0.06,0.46,0.09,0.7c0.03,0.24,0.04,0.47,0.06,0.71
				c0.05,0.95,0.11,1.89,0.16,2.78c0.03,0.44,0.04,0.87,0.04,1.28c0,0.41,0,0.79,0,1.14c0,1.42-0.03,2.37-0.03,2.37
				S179.81,36.08,179.74,34.66z"/>
			<path class="st0" d="M172.57,19.26c-0.02-0.07-0.04-0.13-0.05-0.2c-0.02-0.07-0.04-0.13-0.06-0.19
				c-0.24-0.85-0.47-1.41-0.66-1.77c-0.2-0.38-0.81-0.62-1.24-0.62H165c0.58,0.63,1.33,2.3,1.97,6.69
				c0.64,4.37,0.99,10.17,0.99,16.34c0,6.17-0.35,11.97-0.99,16.34c-0.64,4.39-1.39,6.05-1.97,6.69h5.56c0.43,0,1.12-0.13,1.36-0.49
				c0.22-0.34,0.5-0.92,0.77-1.9c0.02-0.06,0.03-0.13,0.05-0.19c0.01-0.06,0.03-0.13,0.05-0.2c0.7-2.77,1.38-8.29,1.38-19.31
				C174.17,28.22,173.33,22.2,172.57,19.26z M168.5,33.25c0,0-0.08-0.94-0.17-2.35c-0.03-0.7-0.11-1.52-0.15-2.4
				c-0.03-0.88-0.14-1.81-0.21-2.75c-0.03-0.47-0.08-0.93-0.14-1.39c-0.06-0.46-0.11-0.91-0.17-1.35c-0.04-0.44-0.12-0.85-0.19-1.25
				c-0.07-0.4-0.14-0.77-0.2-1.12c-0.06-0.35-0.15-0.66-0.21-0.94c-0.07-0.28-0.12-0.52-0.17-0.72c-0.09-0.4-0.14-0.63-0.14-0.63
				s0.07,0.22,0.2,0.61c0.06,0.2,0.14,0.44,0.23,0.71c0.08,0.28,0.2,0.58,0.27,0.93c0.08,0.34,0.16,0.72,0.25,1.11
				c0.09,0.39,0.19,0.81,0.24,1.26c0.06,0.44,0.12,0.89,0.19,1.35c0.07,0.46,0.13,0.93,0.16,1.4c0.03,0.47,0.07,0.94,0.1,1.4
				c0.04,0.46,0.06,0.92,0.07,1.36c0.03,0.88,0.05,1.71,0.06,2.41C168.52,32.31,168.5,33.25,168.5,33.25z M169.28,33.25
				c0,0-0.08-0.94-0.16-2.35c-0.04-0.7-0.11-1.52-0.15-2.4c-0.03-0.88-0.14-1.81-0.21-2.75c-0.02-0.47-0.08-0.93-0.14-1.39
				c-0.05-0.46-0.11-0.91-0.17-1.35c-0.05-0.44-0.12-0.85-0.19-1.25c-0.07-0.4-0.14-0.77-0.2-1.12c-0.05-0.35-0.15-0.66-0.21-0.94
				c-0.07-0.28-0.13-0.52-0.17-0.72c-0.09-0.4-0.14-0.63-0.14-0.63s0.07,0.22,0.2,0.61c0.06,0.2,0.14,0.44,0.23,0.71
				c0.08,0.28,0.2,0.58,0.27,0.93c0.08,0.34,0.16,0.72,0.25,1.11c0.09,0.39,0.19,0.81,0.24,1.26c0.06,0.44,0.13,0.89,0.19,1.35
				c0.07,0.46,0.13,0.93,0.16,1.4c0.03,0.47,0.07,0.94,0.1,1.4c0.03,0.46,0.06,0.92,0.07,1.36c0.03,0.88,0.05,1.71,0.06,2.41
				C169.3,32.31,169.28,33.25,169.28,33.25z M170.06,33.25c0,0-0.08-0.94-0.17-2.35c-0.04-0.7-0.11-1.52-0.15-2.4
				c-0.03-0.88-0.14-1.81-0.21-2.75c-0.02-0.47-0.08-0.93-0.14-1.39c-0.06-0.46-0.12-0.91-0.17-1.35c-0.05-0.44-0.12-0.85-0.19-1.25
				c-0.07-0.4-0.14-0.77-0.2-1.12c-0.06-0.35-0.15-0.66-0.21-0.94c-0.07-0.28-0.12-0.52-0.17-0.72c-0.09-0.4-0.14-0.63-0.14-0.63
				s0.08,0.22,0.2,0.61c0.06,0.2,0.14,0.44,0.22,0.71c0.08,0.28,0.2,0.58,0.27,0.93c0.08,0.34,0.16,0.72,0.25,1.11
				c0.09,0.39,0.19,0.81,0.24,1.26c0.06,0.44,0.12,0.89,0.19,1.35c0.07,0.46,0.13,0.93,0.17,1.4c0.03,0.47,0.07,0.94,0.1,1.4
				c0.04,0.46,0.07,0.92,0.08,1.36c0.03,0.88,0.05,1.71,0.05,2.41C170.08,32.31,170.06,33.25,170.06,33.25z M170.84,33.25
				c0,0-0.08-0.94-0.16-2.35c-0.04-0.7-0.11-1.52-0.15-2.4c-0.03-0.88-0.14-1.81-0.21-2.75c-0.02-0.47-0.08-0.93-0.14-1.39
				c-0.06-0.46-0.11-0.91-0.17-1.35c-0.04-0.44-0.12-0.85-0.19-1.25c-0.07-0.4-0.14-0.77-0.2-1.12c-0.05-0.35-0.15-0.66-0.21-0.94
				c-0.06-0.28-0.12-0.52-0.17-0.72c-0.09-0.4-0.14-0.63-0.14-0.63s0.07,0.22,0.2,0.61c0.06,0.2,0.14,0.44,0.23,0.71
				c0.08,0.28,0.2,0.58,0.27,0.93c0.08,0.34,0.16,0.72,0.25,1.11c0.09,0.39,0.19,0.81,0.24,1.26c0.06,0.44,0.12,0.89,0.19,1.35
				c0.07,0.46,0.13,0.93,0.16,1.4c0.04,0.47,0.07,0.94,0.1,1.4c0.04,0.46,0.06,0.92,0.07,1.36c0.03,0.88,0.04,1.71,0.06,2.41
				C170.86,32.31,170.84,33.25,170.84,33.25z M171.62,33.25c0,0-0.08-0.94-0.17-2.35c0-0.06,0-0.12-0.01-0.18
				c-0.04-0.66-0.1-1.42-0.14-2.23c-0.03-0.88-0.14-1.81-0.21-2.75c-0.02-0.47-0.08-0.93-0.14-1.39c-0.06-0.46-0.11-0.91-0.17-1.35
				c-0.04-0.44-0.12-0.85-0.19-1.25c-0.07-0.4-0.14-0.77-0.2-1.12c-0.06-0.35-0.15-0.66-0.21-0.94c-0.07-0.28-0.12-0.52-0.17-0.72
				c-0.09-0.4-0.14-0.63-0.14-0.63s0.07,0.22,0.2,0.61c0.06,0.2,0.14,0.44,0.23,0.71c0.08,0.28,0.2,0.58,0.27,0.93
				c0.08,0.34,0.16,0.72,0.25,1.11c0.09,0.39,0.19,0.81,0.24,1.26c0.06,0.44,0.13,0.89,0.19,1.35c0.07,0.46,0.13,0.93,0.16,1.4
				c0.02,0.19,0.03,0.38,0.04,0.57c0.02,0.28,0.04,0.56,0.06,0.83c0.04,0.46,0.06,0.92,0.07,1.36c0.03,0.88,0.04,1.71,0.06,2.41
				C171.64,32.31,171.62,33.25,171.62,33.25z M172.4,33.25c0,0-0.08-0.94-0.17-2.35c-0.04-0.7-0.11-1.52-0.15-2.4
				c-0.03-0.88-0.14-1.81-0.21-2.75c-0.01-0.15-0.02-0.3-0.04-0.44c-0.03-0.32-0.07-0.64-0.11-0.95c-0.03-0.25-0.06-0.48-0.09-0.72
				c-0.03-0.21-0.05-0.43-0.08-0.63c-0.03-0.28-0.07-0.55-0.12-0.82c-0.03-0.15-0.05-0.29-0.08-0.44c-0.07-0.4-0.14-0.77-0.2-1.12
				c-0.05-0.35-0.15-0.66-0.21-0.94c-0.06-0.28-0.13-0.52-0.17-0.72c-0.09-0.4-0.14-0.63-0.14-0.63s0.08,0.22,0.2,0.61
				c0.06,0.2,0.14,0.44,0.22,0.71c0.08,0.28,0.2,0.58,0.27,0.93c0.03,0.14,0.07,0.3,0.1,0.45c0.05,0.22,0.1,0.43,0.15,0.67
				c0.02,0.07,0.03,0.14,0.05,0.21c0.08,0.33,0.15,0.68,0.19,1.04c0,0.01,0,0.02,0,0.03c0.06,0.43,0.12,0.87,0.18,1.32
				c0.07,0.46,0.14,0.93,0.16,1.4c0.03,0.47,0.07,0.94,0.1,1.4c0.04,0.46,0.06,0.92,0.07,1.36c0.03,0.88,0.05,1.71,0.06,2.41
				C172.42,32.31,172.4,33.25,172.4,33.25z M173.01,30.9c-0.04-0.7-0.11-1.52-0.15-2.4c-0.03-0.88-0.14-1.81-0.22-2.75
				c-0.02-0.47-0.08-0.93-0.14-1.39c-0.06-0.46-0.11-0.91-0.17-1.35c-0.05-0.44-0.12-0.85-0.19-1.25c-0.07-0.4-0.14-0.77-0.2-1.12
				c-0.03-0.2-0.07-0.38-0.12-0.55c-0.03-0.13-0.07-0.26-0.09-0.39c-0.04-0.16-0.07-0.3-0.1-0.43c-0.02-0.1-0.05-0.2-0.07-0.29
				c-0.01-0.04-0.02-0.08-0.03-0.12c-0.07-0.32-0.11-0.51-0.11-0.51s0.06,0.19,0.17,0.51c0.01,0.03,0.02,0.06,0.03,0.1
				c0.01,0.03,0.02,0.06,0.03,0.09c0.05,0.16,0.11,0.35,0.18,0.56c0.01,0.02,0.01,0.04,0.02,0.06c0.08,0.28,0.2,0.58,0.27,0.93
				c0.08,0.34,0.16,0.72,0.25,1.11c0.09,0.39,0.19,0.81,0.24,1.26c0.06,0.44,0.13,0.89,0.19,1.35c0.07,0.46,0.13,0.93,0.16,1.4
				c0.03,0.47,0.07,0.94,0.1,1.4c0.04,0.46,0.06,0.92,0.08,1.36c0.03,0.88,0.04,1.71,0.05,2.41c0.01,1.41-0.01,2.35-0.01,2.35
				S173.1,32.31,173.01,30.9z"/>
			<path class="st0" d="M164.19,16.48c-0.07,0-0.13,0.02-0.2,0.04c-0.07,0.03-0.13,0.07-0.19,0.12c-1.61,1.26-2.87,10.2-2.98,21.29
				h-0.39h-0.36H50.05h-0.47h-0.39c-0.11-11.1-1.38-20.03-2.98-21.29c-0.07-0.05-0.13-0.09-0.2-0.12c-0.06-0.02-0.13-0.04-0.19-0.04
				c-1.87,0-3.38,10.31-3.38,23.03c0,12.71,1.51,23.02,3.38,23.02c0.06,0,0.13-0.02,0.19-0.04c0.07-0.02,0.13-0.06,0.2-0.12
				c1.61-1.26,2.87-10.2,2.98-21.29c0-0.16,0-0.31,0-0.47h0h-1.18h-0.63H46.2h-0.07h-0.12h-0.02h-0.03v-0.88h0.01h0.02h0.2h1.19
				h0.01h0.65h0.47H49h0.2h0.39h0.46h109.19h1.18h2.18h0.87h0.34h0.19h0.02h0.01v0.88h-0.03h-0.13h-0.07h-0.14h-1.03H162h-1.18
				h-0.39h-0.36H50.17h-0.59h-0.39v0.47h0.39h0.59h109.9h0.36h0.39c0.11,11.1,1.38,20.03,2.98,21.29c0.07,0.05,0.13,0.09,0.19,0.12
				c0.07,0.03,0.13,0.04,0.2,0.04c1.87,0,3.38-10.31,3.38-23.02C167.57,26.78,166.06,16.48,164.19,16.48z M44.25,46.81
				c0.08,2.33,0.17,4.51,0.33,6.36c0.15,1.86,0.32,3.41,0.55,4.47c0.11,0.53,0.23,0.94,0.37,1.2c0.07,0.13,0.14,0.22,0.2,0.25
				c0.06,0.04,0.11,0.03,0.11,0.03c0,0-0.04,0.01-0.11-0.03c-0.07-0.04-0.15-0.12-0.23-0.24c-0.15-0.25-0.3-0.66-0.44-1.19
				c-0.27-1.06-0.53-2.6-0.73-4.46c-0.2-1.86-0.38-4.04-0.48-6.37c-0.1-2.34-0.16-4.83-0.17-7.32c0.01-2.5,0.07-4.99,0.17-7.33
				c0.1-2.33,0.28-4.51,0.48-6.37c0.2-1.86,0.46-3.4,0.73-4.46c0.14-0.53,0.28-0.94,0.44-1.19c0.08-0.13,0.16-0.21,0.23-0.25
				c0.07-0.04,0.11-0.03,0.11-0.03c0,0-0.04,0-0.11,0.04c-0.06,0.04-0.14,0.13-0.2,0.25c-0.14,0.26-0.26,0.67-0.37,1.2
				c-0.23,1.06-0.39,2.61-0.55,4.47c-0.16,1.86-0.24,4.03-0.33,6.37c-0.08,2.33-0.11,4.82-0.1,7.31
				C44.13,41.99,44.17,44.48,44.25,46.81z M46.01,44.94c0.03-0.01,0.06-0.03,0.08-0.05c0.04-0.02,0.08-0.05,0.11-0.08
				c0.02-0.02,0.04-0.03,0.06-0.05c0.12-0.1,0.23-0.27,0.34-0.46c0.1-0.2,0.2-0.44,0.29-0.7c0.08-0.27,0.16-0.56,0.23-0.88
				c0.07-0.32,0.11-0.65,0.16-1c0.03-0.21,0.05-0.42,0.07-0.64h0.61c-0.03,0.25-0.07,0.49-0.11,0.73c-0.07,0.36-0.15,0.71-0.26,1.04
				c-0.1,0.33-0.22,0.63-0.35,0.9c-0.13,0.27-0.28,0.51-0.43,0.7c-0.16,0.19-0.31,0.34-0.47,0.43c-0.04,0.02-0.08,0.04-0.11,0.06
				c-0.01,0-0.02,0-0.03,0.01c-0.03,0.01-0.06,0.02-0.08,0.02c-0.04,0.01-0.08,0.02-0.12,0.03c-0.02,0-0.04,0.01-0.05,0
				c-0.09,0-0.14,0-0.14,0s0.05-0.01,0.13-0.04C45.97,44.96,45.99,44.95,46.01,44.94z M45.95,34.04C45.86,34.01,45.81,34,45.81,34
				s0.05,0,0.14,0c0.02,0,0.03,0,0.05,0c0.04,0,0.07,0.01,0.11,0.03c0.02,0.01,0.05,0.02,0.08,0.03c0.01,0,0.02,0,0.03,0.01
				c0.03,0.02,0.07,0.04,0.11,0.06c0.16,0.09,0.31,0.24,0.47,0.43c0.15,0.19,0.3,0.43,0.43,0.7c0.13,0.27,0.25,0.57,0.35,0.9
				c0.1,0.33,0.19,0.67,0.26,1.04c0.04,0.24,0.08,0.48,0.11,0.73h-0.61c-0.02-0.21-0.04-0.43-0.07-0.64c-0.05-0.35-0.09-0.69-0.16-1
				c-0.06-0.32-0.14-0.61-0.23-0.88c-0.09-0.26-0.19-0.5-0.29-0.7c-0.11-0.19-0.22-0.36-0.34-0.47c-0.02-0.02-0.04-0.03-0.06-0.05
				c-0.04-0.03-0.07-0.06-0.11-0.08c-0.03-0.02-0.06-0.03-0.09-0.05C45.99,34.05,45.97,34.04,45.95,34.04z M164,38.88h-0.01h-0.19
				h-0.25h-0.93h-2.19h-1.18H50.05h-0.46h-0.39H49h-0.48h-0.48h-0.65H46.2h-0.2H46h-0.02v-0.27h0.03h0.02h0.18h1.18v0h0.64v0h0.42
				h0.76h0.39h0.47h110.02h0.36h0.39h1.18h0.63h1.18h0.18h0.01h0.03v0.27H164z M164.05,45c-0.02,0-0.04,0-0.05,0
				c-0.03-0.01-0.07-0.01-0.11-0.03c-0.03-0.01-0.05-0.02-0.08-0.02c-0.01-0.01-0.02-0.01-0.03-0.01c-0.03-0.02-0.07-0.04-0.11-0.06
				c-0.16-0.09-0.32-0.24-0.47-0.43c-0.15-0.19-0.3-0.43-0.43-0.7c-0.13-0.27-0.25-0.57-0.35-0.9c-0.11-0.32-0.19-0.67-0.26-1.04
				c-0.04-0.24-0.08-0.48-0.11-0.73h0.61c0.02,0.22,0.03,0.43,0.07,0.64c0.05,0.35,0.09,0.69,0.16,1c0.06,0.32,0.14,0.61,0.22,0.88
				c0.09,0.26,0.19,0.5,0.29,0.7c0.11,0.19,0.22,0.36,0.34,0.46c0.02,0.02,0.04,0.04,0.06,0.05c0.04,0.03,0.07,0.06,0.11,0.08
				c0.03,0.02,0.06,0.03,0.08,0.05c0.02,0.01,0.04,0.02,0.06,0.02c0.09,0.02,0.13,0.04,0.13,0.04S164.14,45,164.05,45z
				 M164.05,34.04c-0.02,0-0.04,0.01-0.06,0.02c-0.03,0.01-0.05,0.03-0.09,0.05c-0.03,0.02-0.07,0.04-0.11,0.08
				c-0.02,0.02-0.04,0.03-0.06,0.05c-0.12,0.11-0.23,0.27-0.34,0.47c-0.1,0.2-0.2,0.44-0.29,0.7c-0.08,0.27-0.16,0.56-0.22,0.88
				c-0.07,0.31-0.11,0.65-0.16,1c-0.03,0.21-0.05,0.42-0.07,0.64h-0.61c0.03-0.24,0.07-0.49,0.11-0.73
				c0.07-0.36,0.15-0.71,0.26-1.04c0.09-0.33,0.22-0.63,0.35-0.9c0.13-0.27,0.28-0.51,0.43-0.7c0.16-0.19,0.31-0.34,0.47-0.43
				c0.04-0.02,0.07-0.04,0.11-0.06c0.01,0,0.02-0.01,0.03-0.01c0.03-0.01,0.06-0.02,0.08-0.03c0.04-0.02,0.08-0.02,0.11-0.03
				c0.02,0,0.04-0.01,0.06,0c0.09,0,0.14,0,0.14,0S164.14,34.01,164.05,34.04z M165.71,53.2c-0.2,1.86-0.46,3.4-0.73,4.46
				c-0.14,0.53-0.28,0.94-0.44,1.19c-0.08,0.12-0.16,0.21-0.23,0.24c-0.07,0.03-0.11,0.03-0.11,0.03c0,0,0.04,0,0.11-0.03
				c0.07-0.04,0.14-0.13,0.2-0.25c0.14-0.26,0.25-0.67,0.37-1.2c0.23-1.06,0.39-2.61,0.55-4.47c0.15-1.86,0.24-4.03,0.33-6.36
				c0.08-2.33,0.11-4.82,0.1-7.31c0.01-2.49-0.02-4.98-0.1-7.31c-0.08-2.33-0.17-4.51-0.33-6.37c-0.16-1.86-0.32-3.41-0.55-4.47
				c-0.11-0.53-0.23-0.94-0.37-1.2c-0.07-0.13-0.14-0.21-0.2-0.25c-0.06-0.04-0.11-0.03-0.11-0.04c0,0,0.04-0.01,0.11,0.03
				c0.07,0.04,0.15,0.12,0.23,0.25c0.15,0.25,0.3,0.66,0.44,1.19c0.27,1.06,0.53,2.6,0.73,4.46c0.2,1.86,0.38,4.04,0.48,6.37
				c0.1,2.34,0.16,4.83,0.17,7.33c-0.02,2.49-0.07,4.99-0.17,7.32C166.09,49.16,165.91,51.34,165.71,53.2z"/>
		</g>
		<g>
			<g>
				<path class="st0" d="M65.92,43.19v4.49h-8.98v4.5h6.73v4.49h-6.73v4.49v4.5h-4.51v-8.99v-4.49v-8.99H65.92z"/>
				<path class="st0" d="M67.94,43.19h4.5v22.48h-4.5V43.19z"/>
				<path class="st0" d="M84.94,43.19h5.62v4.49h-5.62v17.99h-4.5V47.67h-5.62v-4.49h5.62H84.94z"/>
				<path class="st0" d="M106.28,55.47V43.19h4.5v22.48L97.3,53.36v12.3h-4.5V43.19L106.28,55.47z"/>
				<path class="st0" d="M126.73,43.19v4.49h-8.98v4.5h6.73v4.49h-6.73v4.49h8.98v4.5h-8.98h-4.5v-8.99v-4.49v-8.99H126.73z"/>
				<path class="st0" d="M133.85,56.08c-0.67-0.23-1.39-0.6-2.15-1.1c-0.76-0.5-1.44-1.17-2.04-1.99c-0.6-0.82-0.91-1.85-0.91-3.08
					c0-1.85,0.66-3.43,1.98-4.75c1.32-1.32,2.91-1.98,4.77-1.98c1.85,0,3.43,0.66,4.75,1.98c1.32,1.32,1.98,2.91,1.98,4.75h-4.49
					c0-0.61-0.22-1.14-0.66-1.58c-0.44-0.44-0.97-0.66-1.58-0.66c-0.62,0-1.15,0.22-1.59,0.66c-0.43,0.44-0.65,0.97-0.65,1.58
					c0,0.8,0.32,1.41,0.97,1.82c0.65,0.41,1.14,0.67,1.47,0.76c0.16,0.05,0.59,0.19,1.29,0.39c0.7,0.2,1.44,0.54,2.22,1.02
					c0.78,0.47,1.47,1.11,2.1,1.92c0.62,0.8,0.93,1.83,0.93,3.09c0,1.86-0.66,3.45-1.98,4.77c-1.32,1.32-2.9,1.98-4.75,1.98
					c-1.86,0-3.45-0.66-4.77-1.98c-1.32-1.32-1.98-2.91-1.98-4.77h4.51c0,0.62,0.22,1.15,0.65,1.59c0.44,0.44,0.97,0.65,1.59,0.65
					c0.61,0,1.14-0.22,1.58-0.65c0.44-0.44,0.66-0.97,0.66-1.59c0-0.95-0.38-1.56-1.14-1.84c-0.76-0.28-1.27-0.47-1.54-0.57
					C134.93,56.45,134.53,56.32,133.85,56.08z"/>
				<path class="st0" d="M149.18,56.08c-0.67-0.23-1.39-0.6-2.15-1.1c-0.76-0.5-1.44-1.17-2.04-1.99c-0.6-0.82-0.9-1.85-0.9-3.08
					c0-1.85,0.66-3.43,1.98-4.75c1.32-1.32,2.91-1.98,4.77-1.98c1.85,0,3.44,0.66,4.76,1.98c1.32,1.32,1.98,2.91,1.98,4.75h-4.49
					c0-0.61-0.22-1.14-0.66-1.58c-0.44-0.44-0.97-0.66-1.58-0.66c-0.62,0-1.15,0.22-1.59,0.66c-0.44,0.44-0.66,0.97-0.66,1.58
					c0,0.8,0.32,1.41,0.97,1.82c0.65,0.41,1.14,0.67,1.47,0.76c0.16,0.05,0.59,0.19,1.29,0.39c0.7,0.2,1.44,0.54,2.22,1.02
					c0.77,0.47,1.47,1.11,2.1,1.92c0.62,0.8,0.94,1.83,0.94,3.09c0,1.86-0.66,3.45-1.98,4.77c-1.32,1.32-2.9,1.98-4.76,1.98
					c-1.86,0-3.45-0.66-4.77-1.98c-1.32-1.32-1.98-2.91-1.98-4.77h4.5c0,0.62,0.22,1.15,0.66,1.59c0.43,0.44,0.96,0.65,1.59,0.65
					c0.61,0,1.14-0.22,1.58-0.65c0.44-0.44,0.66-0.97,0.66-1.59c0-0.95-0.38-1.56-1.14-1.84c-0.76-0.28-1.27-0.47-1.54-0.57
					C150.26,56.45,149.85,56.32,149.18,56.08z"/>
			</g>
			<g>
				<g>
					<path class="st0" d="M89.95,3.57c-8.84,0-16.01,7.17-16.01,16.01c0,8.85,7.17,16.02,16.01,16.02c8.85,0,16.02-7.17,16.02-16.02
						C105.96,10.74,98.79,3.57,89.95,3.57z M93.39,15.29c0,0-0.05-0.03-0.15-0.1c-0.05-0.03-0.11-0.07-0.18-0.12
						c-0.04-0.02-0.08-0.05-0.12-0.07c-0.04-0.02-0.09-0.05-0.14-0.07c-0.1-0.05-0.2-0.11-0.32-0.16c-0.06-0.03-0.12-0.05-0.18-0.08
						c-0.03-0.01-0.07-0.03-0.1-0.04c-0.04-0.01-0.07-0.03-0.11-0.04c-0.07-0.02-0.14-0.05-0.22-0.08
						c-0.04-0.01-0.07-0.03-0.12-0.04c-0.04-0.01-0.08-0.02-0.12-0.03c-0.08-0.02-0.16-0.04-0.25-0.07
						c-0.02-0.01-0.04-0.01-0.06-0.02c-0.02,0-0.05-0.01-0.07-0.01c-0.04-0.01-0.09-0.01-0.13-0.02c-0.09-0.01-0.18-0.04-0.28-0.05
						c-0.09-0.01-0.19-0.02-0.29-0.03c-0.05,0-0.1-0.01-0.15-0.02c-0.05,0-0.1,0-0.16,0c-0.1,0-0.21,0-0.32-0.01
						c-0.05,0-0.1,0.01-0.15,0.01c-0.05,0-0.1,0-0.16,0.01c-0.11,0.01-0.22,0.02-0.32,0.04c-0.05,0.01-0.11,0.02-0.16,0.02
						c-0.05,0.01-0.11,0.02-0.16,0.03c-0.11,0.02-0.22,0.05-0.33,0.08c-0.22,0.06-0.44,0.13-0.65,0.22
						c-0.11,0.04-0.21,0.09-0.32,0.14c-0.05,0.03-0.1,0.05-0.16,0.08c-0.05,0.03-0.1,0.05-0.16,0.09c-0.21,0.12-0.4,0.25-0.6,0.39
						c-0.19,0.15-0.37,0.3-0.55,0.47c-0.34,0.34-0.64,0.72-0.88,1.13c-0.24,0.41-0.42,0.85-0.55,1.28
						c-0.06,0.22-0.11,0.44-0.14,0.66c-0.01,0.05-0.02,0.11-0.03,0.16c0,0.05-0.01,0.11-0.01,0.16c-0.01,0.1-0.01,0.22-0.02,0.32
						l0,0.04c0,0.01,0,0.02,0,0.04l0,0.08c0,0.05,0,0.1,0,0.15c0,0.1,0,0.2,0.01,0.3c0.01,0.1,0.02,0.19,0.03,0.29
						c0,0.02,0,0.05,0.01,0.07c0,0.02,0.01,0.05,0.01,0.07c0.01,0.05,0.02,0.09,0.02,0.14c0.02,0.09,0.03,0.18,0.05,0.27
						c0.02,0.09,0.05,0.17,0.07,0.25c0.04,0.17,0.1,0.31,0.15,0.46c0.01,0.03,0.03,0.07,0.04,0.1c0.01,0.03,0.03,0.07,0.04,0.1
						c0.03,0.07,0.06,0.13,0.08,0.19c0.03,0.06,0.05,0.12,0.08,0.17c0.03,0.05,0.05,0.1,0.08,0.15c0.03,0.05,0.05,0.09,0.07,0.14
						c0.02,0.04,0.04,0.09,0.07,0.12c0.05,0.07,0.09,0.13,0.12,0.18c0.06,0.1,0.1,0.15,0.1,0.15s-0.04-0.05-0.11-0.14
						c-0.04-0.04-0.08-0.1-0.14-0.17c-0.06-0.06-0.11-0.15-0.17-0.24c-0.03-0.05-0.06-0.1-0.1-0.15c-0.04-0.05-0.06-0.11-0.1-0.17
						c-0.06-0.12-0.14-0.24-0.2-0.38c-0.06-0.14-0.14-0.29-0.19-0.46c-0.03-0.08-0.06-0.17-0.09-0.25
						c-0.03-0.09-0.05-0.18-0.07-0.27c-0.01-0.05-0.02-0.09-0.04-0.14c0-0.03-0.01-0.05-0.02-0.07c-0.01-0.02-0.01-0.05-0.02-0.07
						c-0.01-0.1-0.03-0.2-0.05-0.3c-0.02-0.1-0.02-0.21-0.03-0.32c0-0.05-0.01-0.11-0.01-0.16l-0.01-0.08c0-0.02,0-0.02,0-0.04
						v-0.04c0-0.11,0-0.21,0-0.33c0-0.06,0-0.12,0.01-0.17c0-0.06,0.01-0.12,0.02-0.17c0.02-0.23,0.07-0.47,0.12-0.71
						c0.12-0.47,0.29-0.95,0.55-1.39c0.25-0.45,0.57-0.87,0.94-1.23c0.19-0.18,0.38-0.35,0.59-0.51c0.21-0.15,0.42-0.3,0.65-0.42
						c0.45-0.25,0.93-0.43,1.4-0.54c0.12-0.03,0.24-0.05,0.36-0.07c0.06-0.01,0.12-0.02,0.18-0.03c0.06-0.01,0.12-0.01,0.17-0.02
						c0.11-0.01,0.23-0.02,0.35-0.02c0.06-0.01,0.11,0,0.17,0c0.06,0,0.12,0,0.17,0c0.11,0.01,0.21,0.02,0.32,0.02
						c0.05,0,0.1,0.01,0.16,0.01c0.05,0.01,0.1,0.02,0.16,0.02c0.1,0.02,0.21,0.03,0.31,0.05c0.1,0.02,0.19,0.05,0.29,0.07
						c0.05,0.01,0.1,0.02,0.14,0.04c0.02,0.01,0.05,0.01,0.07,0.02c0.02,0.01,0.04,0.02,0.07,0.02c0.09,0.03,0.17,0.06,0.25,0.09
						c0.04,0.02,0.08,0.03,0.12,0.04c0.04,0.02,0.08,0.03,0.12,0.05c0.08,0.04,0.15,0.07,0.22,0.1c0.04,0.02,0.07,0.03,0.1,0.05
						c0.03,0.02,0.06,0.04,0.1,0.05c0.06,0.04,0.12,0.07,0.18,0.1c0.12,0.06,0.22,0.14,0.31,0.2c0.05,0.03,0.09,0.06,0.13,0.09
						c0.04,0.03,0.08,0.06,0.11,0.08c0.07,0.06,0.12,0.1,0.17,0.14C93.35,15.25,93.39,15.29,93.39,15.29z M87.2,21.27
						c0.04,0.07,0.11,0.15,0.2,0.26c0.1,0.1,0.21,0.23,0.36,0.36c0.07,0.06,0.16,0.12,0.24,0.19c0.09,0.06,0.18,0.12,0.29,0.18
						c0.2,0.12,0.44,0.22,0.7,0.29c0.13,0.04,0.26,0.07,0.4,0.09c0.07,0.01,0.14,0.02,0.21,0.02c0.07,0,0.14,0.02,0.22,0.01
						c0.04,0,0.08,0,0.12,0h0.03h0.01h0l0,0c0,0,0,0,0,0l0.02,0l0.05,0c0.07,0,0.15-0.01,0.22-0.02c0.07-0.01,0.14-0.03,0.22-0.03
						c0.04-0.01,0.07-0.01,0.11-0.02l0.11-0.03l0.11-0.03c0.04-0.01,0.08-0.02,0.11-0.03c0.07-0.03,0.14-0.05,0.21-0.08
						c0.14-0.07,0.28-0.13,0.41-0.21c0.07-0.04,0.13-0.08,0.19-0.13c0.06-0.05,0.13-0.09,0.18-0.14c0.06-0.05,0.11-0.1,0.17-0.15
						c0.03-0.02,0.05-0.05,0.08-0.08l0.08-0.08c0.03-0.03,0.05-0.05,0.08-0.08l0.07-0.09l0.07-0.09l0.03-0.05l0.03-0.05
						c0.04-0.06,0.08-0.12,0.12-0.19c0.03-0.06,0.07-0.13,0.1-0.19c0.02-0.03,0.03-0.06,0.05-0.1c0.02-0.03,0.03-0.07,0.04-0.1
						c0.03-0.07,0.06-0.13,0.08-0.2c0.04-0.13,0.08-0.27,0.1-0.39c0.01-0.07,0.03-0.12,0.04-0.19c0.01-0.07,0.01-0.14,0.02-0.2
						c0-0.03,0.01-0.07,0.01-0.1c0-0.03,0-0.06,0-0.09c0-0.06,0.01-0.12,0-0.18c0-0.06-0.01-0.12-0.01-0.17
						c0-0.06-0.02-0.11-0.02-0.17c-0.01-0.11-0.04-0.21-0.05-0.3c-0.02-0.1-0.05-0.18-0.07-0.26c-0.03-0.08-0.05-0.16-0.08-0.22
						c-0.03-0.06-0.05-0.12-0.07-0.17c-0.02-0.05-0.04-0.09-0.06-0.13c-0.03-0.07-0.05-0.11-0.05-0.11s0.03,0.03,0.07,0.09
						c0.02,0.03,0.05,0.07,0.09,0.11c0.03,0.05,0.07,0.1,0.1,0.16c0.04,0.06,0.07,0.13,0.12,0.21c0.04,0.08,0.07,0.17,0.11,0.26
						c0.07,0.19,0.14,0.42,0.17,0.67c0.01,0.06,0.01,0.13,0.02,0.19l0,0.05l0,0.03l0,0.01v0.01v0c0,0,0,0.01,0,0.01
						c0,0.03,0,0.06,0,0.1c0,0.07,0,0.13,0,0.2c0,0.07-0.02,0.14-0.02,0.22c-0.01,0.15-0.05,0.3-0.08,0.45
						c-0.02,0.08-0.05,0.15-0.07,0.22c-0.01,0.04-0.03,0.07-0.04,0.11c-0.01,0.04-0.03,0.07-0.05,0.11
						c-0.12,0.3-0.31,0.58-0.53,0.84c-0.06,0.06-0.11,0.13-0.18,0.19c-0.06,0.06-0.13,0.12-0.19,0.18c-0.07,0.05-0.14,0.1-0.21,0.16
						c-0.07,0.05-0.14,0.1-0.22,0.14c-0.15,0.1-0.31,0.16-0.46,0.24c-0.08,0.03-0.16,0.06-0.24,0.09c-0.04,0.02-0.08,0.03-0.12,0.04
						l-0.12,0.03l-0.12,0.03c-0.04,0.01-0.08,0.01-0.13,0.02c-0.08,0.01-0.17,0.03-0.25,0.03c-0.08,0-0.16,0.01-0.25,0.01l-0.06,0
						l-0.02,0l-0.02,0l-0.03,0c-0.04,0-0.08,0-0.12-0.01c-0.07,0-0.16-0.02-0.24-0.03c-0.08-0.01-0.15-0.03-0.23-0.04
						c-0.15-0.03-0.29-0.08-0.43-0.13c-0.28-0.1-0.52-0.24-0.72-0.38c-0.05-0.04-0.1-0.07-0.15-0.11c-0.04-0.04-0.09-0.08-0.14-0.12
						c-0.08-0.08-0.16-0.15-0.23-0.23c-0.14-0.15-0.24-0.3-0.32-0.42c-0.08-0.12-0.13-0.22-0.16-0.29
						c-0.03-0.07-0.05-0.11-0.05-0.11S87.15,21.21,87.2,21.27z M87.12,19.59c0-1.56,1.26-2.82,2.82-2.82c1.56,0,2.82,1.26,2.82,2.82
						c0,1.56-1.26,2.82-2.82,2.82C88.39,22.41,87.12,21.15,87.12,19.59z M81.77,7.09L81.6,7.2l-0.16,0.12
						c-0.11,0.08-0.22,0.15-0.32,0.23c-0.11,0.07-0.21,0.16-0.31,0.24c-0.1,0.08-0.21,0.17-0.31,0.25c-0.1,0.08-0.2,0.17-0.3,0.26
						c-0.1,0.09-0.21,0.18-0.3,0.26c-0.79,0.73-1.52,1.55-2.16,2.45c-0.63,0.89-1.17,1.86-1.59,2.85c-0.42,0.99-0.73,2.02-0.93,3.03
						c-0.02,0.13-0.05,0.25-0.07,0.38c-0.02,0.13-0.04,0.25-0.05,0.38c-0.02,0.13-0.04,0.25-0.05,0.37
						c-0.02,0.12-0.02,0.25-0.03,0.37c-0.01,0.12-0.02,0.25-0.03,0.37c-0.01,0.12-0.01,0.25-0.02,0.37c0,0.12-0.01,0.25-0.01,0.37
						l0,0.09v0.08c0,0.06,0,0.12,0,0.18c0,0.47,0.02,0.93,0.06,1.38c0.04,0.44,0.09,0.87,0.17,1.28c0.14,0.82,0.33,1.56,0.55,2.2
						c0.21,0.64,0.44,1.19,0.64,1.64c0.21,0.44,0.38,0.78,0.51,1.01c0.13,0.23,0.19,0.35,0.19,0.35s-0.08-0.12-0.22-0.33
						c-0.14-0.22-0.35-0.55-0.58-0.98c-0.23-0.43-0.5-0.97-0.75-1.61c-0.25-0.64-0.49-1.38-0.67-2.21
						c-0.09-0.41-0.16-0.85-0.23-1.31c-0.05-0.46-0.1-0.93-0.11-1.42c0-0.06-0.01-0.12-0.01-0.18l0-0.04V19.6v-0.01v-0.02v-0.09
						c0-0.12,0-0.25,0-0.37c0-0.12,0-0.25,0.01-0.37c0.01-0.13,0.02-0.26,0.02-0.38c0.01-0.13,0.01-0.26,0.03-0.39
						c0.02-0.13,0.03-0.26,0.04-0.39c0.02-0.13,0.03-0.26,0.05-0.39c0.02-0.13,0.04-0.26,0.06-0.39c0.18-1.05,0.48-2.12,0.9-3.17
						c0.42-1.05,0.98-2.05,1.63-2.99c0.66-0.94,1.41-1.8,2.24-2.56c0.1-0.1,0.21-0.18,0.32-0.28c0.11-0.09,0.21-0.19,0.32-0.27
						c0.11-0.08,0.22-0.17,0.33-0.26c0.11-0.09,0.21-0.17,0.33-0.25c0.45-0.32,0.9-0.62,1.37-0.88c0.93-0.53,1.89-0.94,2.82-1.24
						c0.12-0.04,0.23-0.07,0.35-0.11c0.11-0.04,0.23-0.06,0.35-0.09c0.23-0.06,0.45-0.12,0.68-0.17c0.11-0.02,0.22-0.05,0.33-0.07
						c0.06-0.01,0.11-0.02,0.17-0.04c0.05-0.01,0.11-0.02,0.17-0.03c0.22-0.03,0.43-0.07,0.64-0.1c0.85-0.1,1.63-0.12,2.31-0.11
						h0.02c0.01,0,0.01,0,0.02,0l0.03,0l0.07,0c0.04,0,0.08,0,0.12,0.01c0.08,0.01,0.16,0.01,0.24,0.02c0.08,0,0.16,0.01,0.23,0.02
						c0.04,0,0.08,0,0.11,0.01c0.04,0,0.08,0.01,0.11,0.01c0.15,0.02,0.29,0.04,0.43,0.05c0.07,0.01,0.13,0.02,0.2,0.02
						c0.03,0,0.06,0.01,0.1,0.01c0.03,0.01,0.06,0.01,0.09,0.02c0.24,0.04,0.46,0.08,0.65,0.12c0.19,0.04,0.34,0.08,0.47,0.11
						c0.26,0.06,0.39,0.1,0.39,0.1s-0.14-0.02-0.4-0.05c-0.13-0.02-0.29-0.04-0.48-0.06c-0.19-0.02-0.41-0.04-0.65-0.06
						c-0.24-0.02-0.51-0.02-0.81-0.04c-0.04,0-0.07,0-0.11,0c-0.04,0-0.07,0-0.11,0c-0.08,0-0.16,0-0.23,0c-0.16,0-0.32,0-0.49,0.01
						c-0.68,0.04-1.44,0.09-2.25,0.24c-0.2,0.04-0.41,0.08-0.62,0.13C87,4.85,86.95,4.86,86.9,4.87c-0.05,0.01-0.11,0.03-0.16,0.04
						C86.63,4.94,86.53,4.97,86.42,5c-0.22,0.05-0.43,0.12-0.65,0.19c-0.11,0.04-0.22,0.06-0.33,0.1c-0.11,0.04-0.22,0.08-0.33,0.12
						c-0.11,0.04-0.23,0.08-0.34,0.12c-0.11,0.05-0.22,0.09-0.33,0.14c-0.11,0.05-0.23,0.09-0.34,0.14
						c-0.11,0.05-0.22,0.1-0.33,0.16c-0.11,0.05-0.23,0.1-0.34,0.16c-0.11,0.06-0.22,0.12-0.33,0.18c-0.11,0.06-0.22,0.11-0.33,0.18
						c-0.11,0.06-0.22,0.13-0.33,0.19C82.2,6.8,81.99,6.95,81.77,7.09z M102.61,20.96c-0.01,0.11-0.02,0.21-0.03,0.32
						c-0.01,0.11-0.02,0.22-0.04,0.33c-0.02,0.11-0.04,0.22-0.05,0.33c-0.03,0.22-0.08,0.44-0.13,0.67
						c-0.01,0.06-0.02,0.11-0.04,0.17c-0.01,0.06-0.03,0.11-0.04,0.17c-0.03,0.11-0.06,0.23-0.09,0.34
						c-0.03,0.12-0.07,0.23-0.1,0.34c-0.03,0.11-0.07,0.23-0.11,0.34c-0.04,0.11-0.09,0.23-0.13,0.34
						c-0.04,0.11-0.08,0.23-0.13,0.34c-0.38,0.9-0.88,1.8-1.49,2.63c-0.31,0.41-0.64,0.81-1,1.19L99.1,28.6l-0.07,0.07l-0.07,0.07
						l-0.29,0.27c-0.09,0.09-0.19,0.18-0.29,0.26c-0.1,0.08-0.2,0.17-0.3,0.26c-0.82,0.66-1.71,1.22-2.64,1.66
						c-0.94,0.43-1.91,0.74-2.87,0.93c-0.12,0.03-0.24,0.04-0.36,0.06c-0.12,0.02-0.24,0.04-0.36,0.06
						c-0.12,0.01-0.24,0.03-0.36,0.04c-0.12,0.01-0.24,0.03-0.35,0.03c-0.47,0.03-0.93,0.04-1.38,0.03
						c-0.11-0.01-0.22-0.01-0.33-0.01c-0.11-0.01-0.22-0.02-0.33-0.03c-0.11-0.01-0.22-0.02-0.32-0.03
						c-0.1-0.01-0.21-0.03-0.31-0.04c-0.1-0.01-0.21-0.03-0.31-0.05c-0.1-0.02-0.2-0.03-0.3-0.05c-0.2-0.04-0.39-0.08-0.58-0.13
						c-0.76-0.18-1.43-0.42-2-0.68c-0.58-0.25-1.05-0.52-1.44-0.75c-0.38-0.24-0.67-0.44-0.86-0.58c-0.19-0.15-0.29-0.22-0.29-0.22
						s0.11,0.07,0.31,0.19c0.2,0.12,0.51,0.3,0.9,0.5c0.4,0.2,0.89,0.42,1.47,0.63c0.58,0.21,1.25,0.4,1.99,0.54
						c0.18,0.04,0.38,0.06,0.57,0.09c0.1,0.02,0.2,0.02,0.29,0.04c0.1,0.01,0.2,0.02,0.3,0.03c0.2,0.01,0.41,0.03,0.61,0.04
						c0.1,0,0.21,0.01,0.31,0.01c0.11,0,0.22,0,0.33,0c0.43,0,0.87-0.03,1.32-0.08c0.11-0.01,0.22-0.03,0.34-0.04
						c0.11-0.02,0.22-0.03,0.34-0.05c0.11-0.02,0.23-0.04,0.34-0.06c0.11-0.02,0.23-0.04,0.34-0.07c0.91-0.2,1.83-0.52,2.71-0.94
						c0.11-0.05,0.22-0.11,0.33-0.17c0.11-0.06,0.22-0.11,0.32-0.17c0.21-0.12,0.43-0.24,0.63-0.38l0.31-0.2l0.3-0.22l0.15-0.11
						c0.05-0.04,0.1-0.08,0.15-0.11l0.29-0.23c0.76-0.63,1.45-1.35,2.04-2.13c0.59-0.78,1.07-1.62,1.46-2.47
						c0.05-0.11,0.09-0.21,0.14-0.32c0.04-0.11,0.09-0.21,0.13-0.32c0.04-0.11,0.08-0.21,0.11-0.32c0.04-0.11,0.08-0.21,0.11-0.32
						c0.03-0.11,0.07-0.21,0.1-0.32c0.02-0.05,0.03-0.11,0.05-0.16c0.01-0.05,0.03-0.11,0.04-0.16c0.05-0.21,0.11-0.42,0.15-0.63
						c0.02-0.11,0.04-0.21,0.06-0.31c0.02-0.1,0.03-0.21,0.05-0.31c0.02-0.1,0.03-0.21,0.05-0.31c0.02-0.1,0.02-0.2,0.03-0.3
						c0.02-0.2,0.05-0.39,0.05-0.59c0-0.1,0.01-0.2,0.02-0.3l0-0.07l0-0.04v-0.02l0,0c0,0,0,0,0,0v-0.01c0-0.05,0-0.1,0-0.14
						c0-0.19,0-0.37,0-0.55c-0.01-0.18-0.02-0.36-0.03-0.53c0-0.09-0.01-0.17-0.02-0.25c-0.01-0.08-0.02-0.17-0.02-0.25
						c-0.01-0.08-0.02-0.16-0.02-0.24c-0.01-0.08-0.02-0.16-0.04-0.23c-0.02-0.15-0.04-0.3-0.07-0.44
						c-0.03-0.14-0.06-0.28-0.08-0.41c-0.01-0.06-0.03-0.13-0.04-0.19c-0.02-0.06-0.03-0.12-0.05-0.18
						c-0.03-0.12-0.06-0.23-0.09-0.34c-0.12-0.43-0.22-0.76-0.31-0.98c-0.08-0.23-0.12-0.35-0.12-0.35s0.05,0.12,0.16,0.33
						c0.05,0.11,0.12,0.24,0.18,0.4c0.03,0.08,0.07,0.17,0.11,0.26c0.04,0.09,0.08,0.19,0.12,0.3c0.04,0.11,0.07,0.22,0.12,0.34
						c0.02,0.06,0.04,0.12,0.06,0.18c0.02,0.06,0.04,0.13,0.06,0.19c0.04,0.13,0.08,0.27,0.12,0.41c0.03,0.14,0.07,0.29,0.1,0.44
						c0.02,0.08,0.04,0.16,0.05,0.23c0.01,0.08,0.03,0.16,0.04,0.24c0.01,0.08,0.03,0.17,0.04,0.25c0.02,0.08,0.03,0.17,0.04,0.26
						c0.02,0.18,0.04,0.36,0.06,0.54c0.02,0.19,0.02,0.38,0.03,0.57c0,0.05,0.01,0.1,0.01,0.15v0.01c0,0,0,0,0,0.01v0.02v0.04v0.07
						c0,0.1,0,0.2,0,0.3c0,0.2-0.01,0.41-0.02,0.62C102.63,20.74,102.63,20.85,102.61,20.96z"/>
				</g>
				<path class="st0" d="M58.87,3.41v25.68H71.7v6.44H52.43V3.41H58.87z"/>
				<path class="st0" d="M122.55,35.53l-0.68-1.52l-13.75-30.6h1.27h4.22h0.26h1.04l7.61,16.92l7.61-16.92h1.1h0.26h4.17h1.35
					L122.55,35.53z"/>
				<path class="st0" d="M157.57,3.41v6.42h-12.83v6.43h9.62v6.42h-9.62v6.42h12.83v6.44h-12.83h-6.44V22.68v-6.42V3.41H157.57z"/>
			</g>
		</g>
	</g>
</g>
</svg>
